<svg viewBox="0 0 24 24" xmlns="http://www.w3.org/2000/svg">
    <path
        d="M22.1499 5.82987L22.8499 6.53987C22.9445 6.63376 22.9978 6.76155 22.9978 6.89487C22.9978 7.02819 22.9445 7.15599 22.8499 7.24987L12.2499 17.8499C12.156 17.9445 12.0282 17.9978 11.8949 17.9978C11.7615 17.9978 11.6337 17.9445 11.5399 17.8499L6.14985 12.4599C6.0552 12.366 6.00195 12.2382 6.00195 12.1049C6.00195 11.9716 6.0552 11.8438 6.14985 11.7499L6.84985 11.0499C6.94374 10.9552 7.07153 10.902 7.20485 10.902C7.33817 10.902 7.46597 10.9552 7.55985 11.0499L9.39985 12.9299L16.3999 5.87987C16.5977 5.68809 16.912 5.68809 17.1099 5.87987L17.8099 6.58987C17.9045 6.68376 17.9578 6.81155 17.9578 6.94487C17.9578 7.07819 17.9045 7.20599 17.8099 7.29987L10.8099 14.2999L11.8899 15.3799L21.4399 5.82987C21.6377 5.63809 21.952 5.63809 22.1499 5.82987ZM8.30985 16.7899L2.55985 11.0499C2.46597 10.9552 2.33817 10.902 2.20485 10.902C2.07153 10.902 1.94374 10.9552 1.84985 11.0499L1.14985 11.7499C1.0552 11.8438 1.00195 11.9716 1.00195 12.1049C1.00195 12.2382 1.0552 12.366 1.14985 12.4599L6.53985 17.8499C6.63374 17.9445 6.76153 17.9978 6.89485 17.9978C7.02817 17.9978 7.15597 17.9445 7.24985 17.8499L8.30985 16.7899Z"
        fill="currentColor"
        fill-rule="evenodd"
        clip-rule="evenodd"
    />
</svg>