<svg xmlns="http://www.w3.org/2000/svg" viewBox="0 0 24 24">
  <path
    d="M13.3043 20.2399C10.9413 22.5919 7.11937 22.5919 4.75635 20.2399C2.41455 17.8973 2.41455 14.1024 4.75635 11.7599L13.2542 3.31989C15.0299 1.55939 17.8945 1.55939 19.6702 3.31989C20.5211 4.15969 21 5.30491 21 6.49989C21 7.69486 20.5211 8.84009 19.6702 9.67989L11.873 17.4199C11.3087 17.9909 10.5391 18.3123 9.73597 18.3123C8.93285 18.3123 8.16319 17.9909 7.59899 17.4199C7.0336 16.857 6.7158 16.0923 6.7158 15.2949C6.7158 14.4974 7.0336 13.7328 7.59899 13.1699L12.5436 8.26989C12.6375 8.17523 12.7655 8.12199 12.8989 8.12199C13.0323 8.12199 13.1603 8.17523 13.2542 8.26989L13.7947 8.79989C13.8895 8.89377 13.9428 9.02157 13.9428 9.15489C13.9428 9.28821 13.8895 9.416 13.7947 9.50989L8.85015 14.4099C8.43186 14.9116 8.46647 15.6494 8.9299 16.1098C9.39333 16.5702 10.132 16.6006 10.6318 16.1799L18.429 8.44989C18.948 7.93544 19.2399 7.23528 19.2399 6.50489C19.2399 5.7745 18.948 5.07434 18.429 4.55989C17.3437 3.48188 15.5907 3.48188 14.5054 4.55989L5.98749 12.9999C4.33316 14.6584 4.33316 17.3414 5.98749 18.9999C7.6691 20.6477 10.3615 20.6477 12.0431 18.9999L17.6984 13.3899C17.8976 13.1916 18.2198 13.1916 18.419 13.3899L18.9495 13.9199C19.0463 14.0106 19.1012 14.1373 19.1012 14.2699C19.1012 14.4025 19.0463 14.5292 18.9495 14.6199L13.3043 20.2399Z"
    fill="currentColor"
  />
</svg>
