<svg xmlns="http://www.w3.org/2000/svg" viewBox="0 0 24 24">
  <path
    d="M20 5.5V4.5C20 4.22386 19.7761 4 19.5 4H15V3C15 2.44772 14.5523 2 14 2H10C9.44772 2 9 2.44772 9 3V4H4.5C4.22386 4 4 4.22386 4 4.5V5.5C4 5.77614 4.22386 6 4.5 6H19.5C19.7761 6 20 5.77614 20 5.5ZM15.3376 20.14C15.8668 20.14 16.3045 19.7276 16.3358 19.1992L17 8H19L18.15 20.14C18.0764 21.1896 17.2021 22.0026 16.15 22H7.87C6.81787 22.0026 5.94365 21.1896 5.87 20.14L5 8H7L7.6642 19.1992C7.69554 19.7276 8.13316 20.14 8.66245 20.14H15.3376Z"
    fill="currentColor"
    fill-rule="evenodd"
    clip-rule="evenodd"
  />
</svg>
