<svg xmlns="http://www.w3.org/2000/svg" viewBox="0 0 24 24">
  <path
    d="M12 17.0015C11.8674 17.0015 11.7407 16.9467 11.65 16.85L5.86 11.06C5.76534 10.9661 5.7121 10.8383 5.7121 10.705C5.7121 10.5717 5.76534 10.4439 5.86 10.35L6.06 10.15C6.15408 10.0523 6.28441 9.99803 6.42 10H9V4.5C9 4.22386 9.22386 4 9.5 4H14.5C14.7761 4 15 4.22386 15 4.5V10H17.58C17.7156 9.99803 17.8459 10.0523 17.94 10.15L18.14 10.35C18.2347 10.4439 18.2879 10.5717 18.2879 10.705C18.2879 10.8383 18.2347 10.9661 18.14 11.06L12.35 16.85C12.2593 16.9467 12.1326 17.0015 12 17.0015ZM19 20.5V19.5C19 19.2239 18.7761 19 18.5 19H5.5C5.22386 19 5 19.2239 5 19.5V20.5C5 20.7761 5.22386 21 5.5 21H18.5C18.7761 21 19 20.7761 19 20.5Z"
    fill="currentColor"
    fill-rule="evenodd"
    clip-rule="evenodd"
  />
</svg>
