<svg xmlns="http://www.w3.org/2000/svg" viewBox="0 0 24 24">
  <path
    d="M10 14.83C10.0004 14.297 9.78804 13.7858 9.41 13.41L3.59 7.59C3.21196 7.2142 2.99958 6.70304 3 6.17V5C3 4.44772 3.44772 4 4 4H20C20.5523 4 21 4.44772 21 5V6.17C21.0004 6.70304 20.788 7.2142 20.41 7.59L14.59 13.41C14.212 13.7858 13.9996 14.297 14 14.83V18.5C14 19.1295 13.7036 19.7223 13.2 20.1L10.8 21.9C10.6485 22.0136 10.4458 22.0319 10.2764 21.9472C10.107 21.8625 10 21.6894 10 21.5V14.83Z"
    fill="currentColor"
  />
</svg>
