<svg viewBox="0 0 24 24" xmlns="http://www.w3.org/2000/svg">
    <path
        d="M3 6C3 4.89543 3.89543 4 5 4C5.53043 4 6.03914 4.21071 6.41421 4.58579C6.78929 4.96086 7 5.46957 7 6C7 7.10457 6.10457 8 5 8C3.89543 8 3 7.10457 3 6ZM20.5 7C20.7761 7 21 6.77614 21 6.5V5.5C21 5.22386 20.7761 5 20.5 5H9.5C9.22386 5 9 5.22386 9 5.5V6.5C9 6.77614 9.22386 7 9.5 7H20.5ZM9.5 11H20.5C20.7761 11 21 11.2239 21 11.5V12.5C21 12.7761 20.7761 13 20.5 13H9.5C9.22386 13 9 12.7761 9 12.5V11.5C9 11.2239 9.22386 11 9.5 11ZM20.5 17H9.5C9.22386 17 9 17.2239 9 17.5V18.5C9 18.7761 9.22386 19 9.5 19H20.5C20.7761 19 21 18.7761 21 18.5V17.5C21 17.2239 20.7761 17 20.5 17ZM5 10C3.89543 10 3 10.8954 3 12C3 13.1046 3.89543 14 5 14C6.10457 14 7 13.1046 7 12C7 10.8954 6.10457 10 5 10ZM3 18C3 16.8954 3.89543 16 5 16C6.10457 16 7 16.8954 7 18C7 19.1046 6.10457 20 5 20C3.89543 20 3 19.1046 3 18Z" fill="currentColor"
        fill-rule="evenodd"
        clip-rule="evenodd"
    />
</svg>