<svg xmlns="http://www.w3.org/2000/svg" viewBox="0 0 24 24">
    <path
        d="M20.2101 14.0741C19.725 13.6707 19.4582 13.0617 19.4901 12.4309V12V11.5691C19.4582 10.9383 19.725 10.3293 20.2101 9.92587L21.0101 9.26455C21.3862 8.95336 21.4834 8.41563 21.2401 7.99202L20.0801 5.98803C19.9025 5.67987 19.5752 5.48918 19.2201 5.48703C19.0997 5.48502 18.9804 5.50894 18.8701 5.55717L17.8701 5.91789C17.6471 6.00535 17.4095 6.04955 17.1701 6.04815C16.7869 6.04715 16.412 5.93586 16.0901 5.72751C15.855 5.56478 15.6076 5.42072 15.3501 5.29665C14.7874 5.0075 14.3943 4.46873 14.2901 3.84376L14.1201 2.84176C14.0409 2.35173 13.6155 1.9937 13.1201 2.00008H10.8201C10.3247 1.9937 9.89931 2.35173 9.82008 2.84176L9.65008 3.84376C9.55457 4.46084 9.17743 4.99804 8.63008 5.29665C8.37258 5.42072 8.12516 5.56478 7.89008 5.72751C7.56817 5.93586 7.1933 6.04715 6.81008 6.04815C6.57062 6.04955 6.33307 6.00535 6.11008 5.91789L5.11008 5.55717C4.99977 5.50894 4.88041 5.48502 4.76008 5.48703C4.40497 5.48918 4.07763 5.67987 3.90008 5.98803L2.76008 7.99202C2.519 8.41797 2.6205 8.95612 3.00008 9.26455L3.80008 9.92587C4.28513 10.3293 4.55195 10.9383 4.52008 11.5691V12V12.4309C4.55195 13.0617 4.28513 13.6707 3.80008 14.0741L3.00008 14.7354C2.6205 15.0439 2.519 15.582 2.76008 16.008L3.92008 18.012C4.09763 18.3201 4.42497 18.5108 4.78008 18.513C4.90041 18.515 5.01977 18.4911 5.13008 18.4428L6.13008 18.0821C6.35307 17.9947 6.59062 17.9504 6.83008 17.9519C7.2133 17.9528 7.58817 18.0641 7.91008 18.2725C8.14516 18.4352 8.39258 18.5793 8.65008 18.7034C9.21278 18.9925 9.60585 19.5313 9.71008 20.1562L9.88008 21.1582C9.95931 21.6483 10.3847 22.0063 10.8801 21.9999H13.1801C13.6755 22.0063 14.1009 21.6483 14.1801 21.1582L14.3501 20.1562C14.4543 19.5313 14.8474 18.9925 15.4101 18.7034C15.6676 18.5793 15.915 18.4352 16.1501 18.2725C16.472 18.0641 16.8469 17.9528 17.2301 17.9519C17.4695 17.9504 17.7071 17.9947 17.9301 18.0821L18.9301 18.4428C19.0404 18.4911 19.1597 18.515 19.2801 18.513C19.6352 18.5108 19.9625 18.3201 20.1401 18.012L21.3001 16.008C21.5281 15.5679 21.4006 15.0268 21.0001 14.7354L20.2101 14.0741ZM12.0001 17.511C8.96251 17.511 6.50008 15.0436 6.50008 12C6.50008 8.95637 8.96251 6.48902 12.0001 6.48902C15.0376 6.48902 17.5001 8.95637 17.5001 12C17.5001 13.4616 16.9206 14.8633 15.8892 15.8968C14.8577 16.9304 13.4588 17.511 12.0001 17.511ZM10.0001 12C10.0001 10.8932 10.8955 9.99601 12.0001 9.99601C13.1046 9.99601 14.0001 10.8932 14.0001 12C14.0001 13.1068 13.1046 14.004 12.0001 14.004C10.8955 14.004 10.0001 13.1068 10.0001 12Z"
        fill="currentColor"
        fill-rule="evenodd"
        clip-rule="evenodd"
    />
</svg>
