<svg xmlns="http://www.w3.org/2000/svg" viewBox="0 0 24 24">
  <path
    d="M8 7H16C18.7614 7 21 9.23858 21 12C21 14.7614 18.7614 17 16 17H8C5.23858 17 3 14.7614 3 12C3 9.23858 5.23858 7 8 7ZM16 6H8C4.68629 6 2 8.68629 2 12C2 15.3137 4.68629 18 8 18H16C19.3137 18 22 15.3137 22 12C22 8.68629 19.3137 6 16 6ZM4 12C4 14.2091 5.79086 16 8 16C9.06087 16 10.0783 15.5786 10.8284 14.8284C11.5786 14.0783 12 13.0609 12 12C12 9.79086 10.2091 8 8 8C5.79086 8 4 9.79086 4 12Z"
    fill="currentColor"
  />
</svg>
