<svg viewBox="0 0 24 24" xmlns="http://www.w3.org/2000/svg">
    <path
        d="M11.9939 5.00008C16.3881 4.95492 20.3582 7.61654 21.9878 11.7001C22.0041 11.7994 22.0041 11.9007 21.9878 12.0001C21.9911 12.1131 21.9706 12.2255 21.9279 12.3301C20.2967 16.3813 16.3588 19.0253 11.9939 19.0001C7.62406 19.0221 3.68479 16.3692 2.05997 12.3101C2.01986 12.2117 1.99948 12.1063 2.00001 12.0001C2.00129 11.8875 2.02156 11.7759 2.05997 11.6701C3.69114 7.61885 7.629 4.97483 11.9939 5.00008ZM8.99575 12.0001C8.99575 13.6569 10.3381 15.0001 11.9939 15.0001C12.7891 15.0001 13.5517 14.684 14.1139 14.1214C14.6762 13.5588 14.9921 12.7957 14.9921 12.0001C14.9921 10.3432 13.6498 9.00008 11.9939 9.00008C10.3381 9.00008 8.99575 10.3432 8.99575 12.0001Z"
        fill="currentColor"
        fill-rule="evenodd"
        clip-rule="evenodd"
    />
</svg>