<svg fill="currentColor" viewBox="0 0 24 24" xmlns="http://www.w3.org/2000/svg">
  <path d="M7.3235 11.0588C7.03052 10.7311 6.61851 10.563 6.09664 10.563C5.48321 10.563 4.97965 10.7731 4.58596 11.1933C4.19227 11.6134 4 12.1429 4 12.7815C4 13.4202 4.19227 13.9496 4.58596 14.3697C4.97965 14.7899 5.48321 15 6.09664 15C6.61851 15 7.03052 14.8319 7.3235 14.5042V14.8824H9.01729V10.6807H7.3235V11.0588ZM5.91353 13.3445C5.62055 13.042 5.62055 12.521 5.91353 12.2185C6.06917 12.0672 6.26144 11.9916 6.50865 11.9916C6.75585 11.9916 6.94812 12.0672 7.09461 12.2185C7.39674 12.521 7.39674 13.042 7.09461 13.3445C6.94812 13.4958 6.75585 13.5714 6.50865 13.5714C6.26144 13.5714 6.06917 13.4958 5.91353 13.3445Z" />
  <path d="M15 4H17V20H15V4Z" />
  <path d="M14 4H18V5H14V4Z" />
  <path d="M14 19H18V20H14V19Z" />
  <path d="M14 6H3C1.89543 6 1 6.89543 1 8V16C1 17.1046 1.89543 18 3 18H14V16H3V8H14V6Z" />
  <path d="M18 6V8H21V16H18V18H21C22.1046 18 23 17.1046 23 16V8C23 6.89543 22.1046 6 21 6H18Z" />
</svg>