<svg fill="currentColor" viewBox="0 0 24 24" xmlns="http://www.w3.org/2000/svg">
  <path d="M3 6H21C22.1046 6 23 6.89543 23 8V16C23 17.1046 22.1046 18 21 18H3C1.89543 18 1 17.1046 1 16V8C1 6.89543 1.89543 6 3 6ZM21 16V8H3V16H21Z" />
  <path d="M7.3235 11.0588C7.03052 10.7311 6.61851 10.563 6.09664 10.563C5.48321 10.563 4.97965 10.7731 4.58596 11.1933C4.19227 11.6134 4 12.1429 4 12.7815C4 13.4202 4.19227 13.9496 4.58596 14.3697C4.97965 14.7899 5.48321 15 6.09664 15C6.61851 15 7.03052 14.8319 7.3235 14.5042V14.8824H9.01729V10.6807H7.3235V11.0588ZM5.91353 13.3445C5.62055 13.042 5.62055 12.521 5.91353 12.2185C6.06917 12.0672 6.26144 11.9916 6.50865 11.9916C6.75585 11.9916 6.94812 12.0672 7.09461 12.2185C7.39674 12.521 7.39674 13.042 7.09461 13.3445C6.94812 13.4958 6.75585 13.5714 6.50865 13.5714C6.26144 13.5714 6.06917 13.4958 5.91353 13.3445Z" />
  <path d="M12.9034 10.563C12.3815 10.563 11.9695 10.7311 11.6765 11.0588V9H9.98271V14.8824H11.6765V14.5042C11.9695 14.8319 12.3815 15 12.9034 15C13.5168 15 14.0203 14.7899 14.414 14.3697C14.8077 13.9496 15 13.4202 15 12.7815C15 12.1429 14.8077 11.6134 14.414 11.1933C14.0203 10.7731 13.5168 10.563 12.9034 10.563ZM11.8962 13.3445C11.6033 13.042 11.6033 12.521 11.8962 12.2185C12.0519 12.0672 12.2442 11.9916 12.4914 11.9916C12.7386 11.9916 12.9308 12.0672 13.0773 12.2185C13.3795 12.521 13.3795 13.042 13.0773 13.3445C12.9308 13.4958 12.7386 13.5714 12.4914 13.5714C12.2442 13.5714 12.0519 13.4958 11.8962 13.3445Z" />
</svg>