<svg fill="currentColor" viewBox="0 0 24 24" xmlns="http://www.w3.org/2000/svg">
  <path d="M10.8466 8.61578L9.6486 13.6677C9.08874 16.0516 8.54286 17.7793 8.01026 18.8509C7.47766 19.9225 6.8549 20.7153 6.14162 21.2292C5.42835 21.7432 4.61092 22 3.68936 22C3.10923 22 2.68252 21.8813 2.40958 21.6447C2.13664 21.4077 2 21.1288 2 20.8082C2 20.5093 2.11253 20.2506 2.33794 20.0319C2.56335 19.8132 2.86006 19.7038 3.22875 19.7038C3.53594 19.7038 3.77149 19.7878 3.93504 19.9554C4.09859 20.1229 4.18072 20.3346 4.18072 20.5895C4.18072 20.8228 4.1297 20.9956 4.0273 21.1091C3.92491 21.2222 3.87388 21.2968 3.87388 21.3334L3.92491 21.4099C3.96579 21.4465 4.01367 21.4644 4.06819 21.4644C4.27298 21.4644 4.44702 21.395 4.59031 21.2565C4.95236 20.9139 5.22181 20.4984 5.39899 20.0099C5.522 19.6747 5.7572 18.789 6.10528 17.3527L8.19409 8.61578H6.77103L7.10897 7.33629C7.62095 7.34376 7.99279 7.27433 8.22484 7.1284C8.45689 6.98246 8.70257 6.65437 8.96188 6.14415C9.71255 4.66423 10.5045 3.60346 11.3373 2.96223C12.1701 2.32099 13.0983 2 14.1222 2C14.7775 2 15.2535 2.13511 15.5505 2.4046C15.8476 2.67445 15.9958 3.02419 15.9958 3.45454C15.9958 3.83376 15.8969 4.13422 15.6987 4.35667C15.5009 4.57913 15.2549 4.69036 14.9617 4.69036C14.6887 4.69036 14.4633 4.59928 14.2858 4.41714C14.1082 4.235 14.0195 4.01627 14.0195 3.76097C14.0195 3.57883 14.0757 3.38549 14.1883 3.18132C14.3008 2.97753 14.3571 2.83868 14.3571 2.7659C14.3571 2.68565 14.3316 2.61996 14.2802 2.5692C14.2292 2.51844 14.1624 2.49268 14.0806 2.49268C13.678 2.49268 13.265 2.75881 12.8418 3.29106C12.1456 4.14392 11.5857 5.49283 11.1625 7.33704H12.6471L12.2889 8.61653H10.8466V8.61578Z" />
  <path d="M13.2937 7.68605L16.8671 7.02989C17.5153 8.11641 17.9728 9.31154 18.2391 10.6164C18.908 9.55937 19.413 8.8196 19.7544 8.39671C20.2119 7.82826 20.589 7.458 20.8857 7.28668C21.1827 7.11573 21.4983 7.02989 21.8328 7.02989C22.2081 7.02989 22.4964 7.13925 22.6981 7.35797C22.899 7.57669 23 7.87193 23 8.24368C23 8.59379 22.899 8.87969 22.6981 9.10215C22.4968 9.3246 22.2458 9.43583 21.9456 9.43583C21.7272 9.43583 21.4759 9.39402 21.1932 9.31004C20.9098 9.22644 20.7137 9.18426 20.6044 9.18426C20.3178 9.18426 20.0445 9.29362 19.7852 9.51234C19.4301 9.81131 18.9933 10.4492 18.4747 11.426C19.0548 13.6128 19.5189 14.9472 19.867 15.4283C20.0718 15.7127 20.28 15.8549 20.4915 15.8549C20.669 15.8549 20.8224 15.8075 20.9521 15.7127C21.1499 15.5597 21.4539 15.1767 21.8632 14.5646L22.2319 14.7941C21.6311 15.8292 21.0443 16.5585 20.4709 16.981C20.034 17.3091 19.6042 17.4729 19.1809 17.4729C18.7441 17.4729 18.3806 17.3692 18.0906 17.1613C17.8002 16.9534 17.543 16.6145 17.3175 16.1442C17.0921 15.6739 16.8262 14.9214 16.519 13.886C15.7204 14.9722 15.0942 15.7653 14.6402 16.2644C14.1859 16.7638 13.8092 17.09 13.509 17.243C13.2088 17.396 12.8876 17.4729 12.5462 17.4729C12.1915 17.4729 11.9098 17.3636 11.7015 17.1448C11.4932 16.9261 11.3891 16.6417 11.3891 16.292C11.3891 15.9202 11.5016 15.6142 11.727 15.3734C11.9524 15.1327 12.239 15.0125 12.5871 15.0125C12.7712 15.0125 12.9795 15.0707 13.2116 15.1875C13.553 15.3626 13.7987 15.4499 13.9486 15.4499C14.1464 15.4499 14.3239 15.4063 14.4809 15.3186C14.6857 15.2092 14.945 14.9722 15.2591 14.6079C15.4503 14.3821 15.8019 13.9006 16.3139 13.1646C15.6586 10.5694 15.1466 9.01667 14.7779 8.50645C14.5459 8.17836 14.2523 8.01451 13.8972 8.01451C13.7131 8.01451 13.4877 8.04362 13.2214 8.10185L13.2937 7.68605Z" />
</svg>