<svg xmlns="http://www.w3.org/2000/svg" viewBox="0 0 24 24">
    <path
        d="M20.5999 3.83004C20.7643 3.99359 20.8669 4.20923 20.8899 4.44004C21.1299 6.92004 21.2699 12.69 17.9999 15.94C15.5337 18.4147 11.6204 18.6921 8.82985 16.59L4.55985 20.85C4.46597 20.9447 4.33817 20.9979 4.20485 20.9979C4.07153 20.9979 3.94374 20.9447 3.84985 20.85L3.14985 20.15C3.0552 20.0562 3.00195 19.9284 3.00195 19.795C3.00195 19.6617 3.0552 19.5339 3.14985 19.44L7.40985 15.2C5.2901 12.4039 5.56801 8.47037 8.05985 6.00004C10.5799 3.46004 14.6199 3.00004 17.2999 3.00004C18.0546 2.99858 18.8089 3.03529 19.5599 3.11004C19.7894 3.13031 20.0049 3.22922 20.1699 3.39004L20.5999 3.83004ZM10.2499 15.16C12.2451 16.501 14.9123 16.2322 16.5999 14.52C19.1399 12 19.0799 7.07004 18.9399 5.06004C18.3999 5.00004 17.8499 5.00004 17.2999 5.00004C15.2699 5.00004 11.5599 5.31004 9.47985 7.40004C7.7677 9.08761 7.49889 11.7548 8.83985 13.75L12.4399 10.15C12.5337 10.0554 12.6615 10.0021 12.7949 10.0021C12.9282 10.0021 13.056 10.0554 13.1499 10.15L13.8499 10.85C13.9445 10.9439 13.9978 11.0717 13.9978 11.205C13.9978 11.3384 13.9445 11.4662 13.8499 11.56L10.2499 15.16Z"
        fill="currentColor"
        fill-rule="evenodd"
        clip-rule="evenodd"
    />
</svg>
