<svg xmlns="http://www.w3.org/2000/svg" viewBox="0 0 24 24">
    <path
        d="M18.9999 9C18.9999 5.13401 15.8659 2 11.9999 2H11.8799C8.18036 2.11001 5.18593 5.04351 4.9999 8.74C4.9319 11.1354 6.09392 13.399 8.0799 14.74C8.67049 15.1185 9.0196 15.7788 8.9999 16.48V17C8.9999 17.5523 9.44761 18 9.9999 18H13.9999C14.5522 18 14.9999 17.5523 14.9999 17V16.48C14.9988 15.8019 15.3414 15.1695 15.9099 14.8C17.8398 13.5004 18.9978 11.3267 18.9999 9ZM14.7899 13.14C14.1121 13.5927 13.5887 14.2417 13.2899 15H10.7099C10.404 14.2429 9.87802 13.5949 9.1999 13.14C7.76773 12.1737 6.9359 10.5365 6.9999 8.81C7.15721 6.18309 9.2803 4.10323 11.9099 4H11.9999C14.194 4.00597 16.1279 5.44169 16.7684 7.54022C17.409 9.63874 16.6066 11.9097 14.7899 13.14ZM10.2899 21.29C10.1052 21.1037 10.001 20.8523 9.9999 20.59V20H13.9999V20.59C13.9988 20.8523 13.8946 21.1037 13.7099 21.29L13.2899 21.71C13.1036 21.8947 12.8522 21.9989 12.5899 22H11.4099C11.1476 21.9989 10.8962 21.8947 10.7099 21.71L10.2899 21.29Z"
        fill="currentColor"
        fill-rule="evenodd"
        clip-rule="evenodd"
    />
</svg>
