<svg xmlns="http://www.w3.org/2000/svg" viewBox="0 0 24 24">
    <path
        d="M12 2C6.47715 2 2 6.47715 2 12C2 17.5228 6.47715 22 12 22C17.5228 22 22 17.5228 22 12C22 9.34784 20.9464 6.8043 19.0711 4.92893C17.1957 3.05357 14.6522 2 12 2ZM18.46 16.7H16.14C15.6808 16.6817 15.2683 16.9787 15.14 17.42L14.47 19.64C12.8474 20.1821 11.0926 20.1821 9.47 19.64L8.8 17.42C8.67169 16.9787 8.25917 16.6817 7.8 16.7H5.48C4.50445 15.3281 3.98654 13.6834 4 12L5.91 10.66C6.28534 10.4045 6.44139 9.9281 6.29 9.5L5.53 7.32C6.51938 5.94436 7.92001 4.9184 9.53 4.39L11.39 5.8C11.7496 6.0768 12.2504 6.0768 12.61 5.8L14.46 4.39C16.07 4.9184 17.4706 5.94436 18.46 7.32L17.71 9.5C17.5586 9.9281 17.7147 10.4045 18.09 10.66L20 12C19.996 13.69 19.4569 15.3353 18.46 16.7ZM15.45 11.44C15.5695 11.0659 15.4267 10.6579 15.1 10.44L12.51 8.69C12.1414 8.4411 11.6586 8.4411 11.29 8.69L8.8 10.44C8.47326 10.6579 8.33046 11.0659 8.45 11.44L9.45 14.33C9.60351 14.7435 10.0098 15.0076 10.45 14.98H13.45C13.8902 15.0076 14.2965 14.7435 14.45 14.33L15.45 11.44Z"
        fill="currentColor"
        fill-rule="evenodd"
        clip-rule="evenodd"
    />
</svg>
