<svg viewBox="0 0 24 24" xmlns="http://www.w3.org/2000/svg">
  <path
    d="M17 4.00004C19.7614 4.00004 22 6.23862 22 9.00004C22.0044 10.0826 21.653 11.1366 21 12V18C21 19.1046 20.1046 20 19 20H4C2.89543 20 2 19.1046 2 18V7.00004C2 5.89547 2.89543 5.00004 4 5.00004H14C14.8634 4.347 15.9174 3.99565 17 4.00004ZM16.62 6.00004C16.3439 6.00004 16.12 6.2239 16.12 6.50004V8.12004H14.5C14.2239 8.12004 14 8.3439 14 8.62004V9.38004C14 9.65618 14.2239 9.88004 14.5 9.88004H16.12V11.5C16.12 11.7762 16.3439 12 16.62 12H17.38C17.6561 12 17.88 11.7762 17.88 11.5V9.88004H19.5C19.7761 9.88004 20 9.65618 20 9.38004V8.62004C20 8.3439 19.7761 8.12004 19.5 8.12004H17.88V6.50004C17.88 6.2239 17.6561 6.00004 17.38 6.00004H16.62ZM4 7.00004H12.42C12.1421 7.63014 11.9991 8.31139 12 9.00004C12.0026 9.33574 12.0361 9.67048 12.1 10H4V7.00004ZM4 13V18H19V13.58C17.3528 14.3162 15.435 14.0937 14 13H4Z"
    fill="currentColor"
    fill-rule="evenodd"
    clip-rule="evenodd"
  />
</svg>