<svg xmlns="http://www.w3.org/2000/svg" viewBox="0 0 24 24">
  <path
    d="M18.0902 10.22L11.0902 21.64C10.9528 21.8619 10.7112 21.9979 10.4502 22H10.2502C10.1101 21.9997 9.97632 21.9419 9.88019 21.84C9.78456 21.7377 9.73724 21.5994 9.75019 21.46L10.3102 15H6.74019C6.4716 14.9971 6.22448 14.8526 6.09019 14.62L5.90019 14.29C5.80475 14.1334 5.80475 13.9366 5.90019 13.78L12.9002 2.36C13.0413 2.13197 13.2921 1.99517 13.5602 2H13.7602C13.9003 2.00026 14.0341 2.05812 14.1302 2.16C14.2258 2.26228 14.2731 2.40058 14.2602 2.54L13.6902 9H17.2602C17.5288 9.0029 17.7759 9.14737 17.9102 9.38L18.1002 9.71C18.1926 9.86847 18.1887 10.0653 18.0902 10.22Z"
    fill="currentColor"
  />
</svg>
