<svg viewBox="0 0 24 24" xmlns="http://www.w3.org/2000/svg">
    <path
        d="M21.7832 10.38L21.6131 10.84C21.3228 11.5861 21.3228 12.4139 21.6131 13.16L21.7832 13.65C22.4026 15.2679 21.6524 17.088 20.0726 17.8L19.6225 18C18.8841 18.3181 18.2868 18.8939 17.9419 19.62L17.7419 20.07C17.0334 21.6532 15.209 22.4047 13.5905 21.78L13.1304 21.61C12.3821 21.3301 11.5579 21.3301 10.8096 21.61L10.3495 21.78C8.73098 22.4047 6.90657 21.6532 6.19812 20.07L5.99806 19.62C5.67984 18.8819 5.10383 18.2847 4.37753 17.94L3.92739 17.74C2.34758 17.028 1.59736 15.2079 2.21683 13.59L2.38689 13.13C2.67719 12.3839 2.67719 11.5561 2.38689 10.81L2.21683 10.35C1.59736 8.73209 2.34758 6.91198 3.92739 6.19999L4.37753 5.99999C5.09339 5.67005 5.66801 5.09562 5.99806 4.37999L6.22813 3.92999C6.93658 2.34681 8.76099 1.59531 10.3795 2.21999L10.8396 2.38999C11.2107 2.52905 11.6037 2.60019 12 2.59999C12.4063 2.60384 12.8099 2.53264 13.1904 2.38999L13.6505 2.21999C15.269 1.59531 17.0934 2.34681 17.8019 3.92999L18.0019 4.37999C18.332 5.09562 18.9066 5.67005 19.6225 5.99999L20.0726 6.22999C21.6524 6.94198 22.4026 8.76209 21.7832 10.38ZM18.8022 16.15L19.2624 15.94C19.8759 15.6698 20.1672 14.964 19.9226 14.34L19.7525 13.85C19.2873 12.6502 19.2873 11.3198 19.7525 10.12L19.9126 9.68999C20.1607 9.05481 19.8714 8.3363 19.2523 8.04999L18.8122 7.85999C17.6297 7.32841 16.6831 6.38209 16.1513 5.19999L15.9413 4.73999C15.7388 4.28692 15.2873 3.99652 14.7909 3.99999C14.6364 3.99999 14.4834 4.03058 14.3408 4.08999L13.8506 4.25999C13.2608 4.48935 12.6328 4.60472 12 4.59999C11.3566 4.60388 10.7183 4.48509 10.1194 4.24999L9.68925 4.08999C9.53544 4.03307 9.37309 4.00264 9.2091 3.99999C8.70823 3.99947 8.2538 4.29318 8.04872 4.74999L7.85866 5.18999C7.33454 6.39263 6.38289 7.35822 5.1878 7.89999L4.72765 8.10999C4.11796 8.38387 3.83155 9.08866 4.07744 9.70999L4.24749 10.2C4.71275 11.3998 4.71275 12.7302 4.24749 13.93L4.08744 14.36C3.83933 14.9952 4.12858 15.7137 4.74765 16L5.1878 16.14C6.37027 16.6716 7.3169 17.6179 7.84866 18.8L8.05872 19.26C8.26125 19.7131 8.7127 20.0035 9.2091 20C9.36362 20 9.51661 19.9694 9.65924 19.91L10.1494 19.74C10.7392 19.5106 11.3672 19.3953 12 19.4C12.6434 19.3961 13.2817 19.5149 13.8806 19.75L14.3107 19.91C14.4646 19.9669 14.6269 19.9973 14.7909 20C15.2918 20.0005 15.7462 19.7068 15.9513 19.25L16.1413 18.81C16.6731 17.6279 17.6197 16.6816 18.8022 16.15ZM11.4998 14C11.2236 14 10.9997 14.2239 10.9997 14.5V15.5C10.9997 15.7761 11.2236 16 11.4998 16H12.5002C12.7764 16 13.0003 15.7761 13.0003 15.5V14.5C13.0003 14.2239 12.7764 14 12.5002 14H11.4998ZM11.3198 7.99999H12.6802C12.824 7.99896 12.9612 8.05979 13.0569 8.16697C13.1527 8.27416 13.1976 8.41734 13.1804 8.55999L12.7803 11.78C12.765 11.9062 12.6574 12.0009 12.5302 12H11.4698C11.3426 12.0009 11.235 11.9062 11.2197 11.78L10.8196 8.55999C10.8024 8.41734 10.8473 8.27416 10.9431 8.16697C11.0388 8.05979 11.176 7.99896 11.3198 7.99999Z"
        fill="currentColor"
        fill-rule="evenodd"
        clip-rule="evenodd"
    />
</svg>
