<svg viewBox="0 0 24 24" xmlns="http://www.w3.org/2000/svg">
  <path d="M18.88 14.88L19.71 15.71C19.8947 15.8963 19.9989 16.1477 20 16.41V17C20 17.5523 19.5523 18 19 18H5C4.44772 18 4 17.5523 4 17V16.41C4.0011 16.1477 4.10526 15.8963 4.29 15.71L5.12 14.88C5.68277 14.3179 5.9993 13.5554 6 12.76V10C6 8.70178 6.42107 7.43858 7.2 6.4L8.1 5.2C8.66656 4.44458 9.55573 4 10.5 4H11V2.5C11 2.22386 11.2239 2 11.5 2H12.5C12.7761 2 13 2.22386 13 2.5V4H13.5C14.4443 4 15.3334 4.44458 15.9 5.2L16.8 6.4C17.5789 7.43858 18 8.70178 18 10V12.76C18.0007 13.5554 18.3172 14.3179 18.88 14.88ZM12 22C13.1046 22 14 21.1046 14 20H10C10 21.1046 10.8954 22 12 22Z" fill="currentColor" />
</svg>