<svg xmlns="http://www.w3.org/2000/svg" viewBox="0 0 18 8">
  <g fill="currentColor">
    <path d="M0 0V8H2.86724C3.70479 7.99267 4.34983 7.79121 4.80238 7.3956C5.25492 7 5.48119 6.41758 5.48119 5.64835C5.48119 5.1978 5.37144 4.81685 5.15192 4.50549C4.93578 4.19414 4.63858 3.98718 4.26034 3.88462C4.5913 3.74542 4.84966 3.52747 5.0354 3.23077C5.22115 2.9304 5.31402 2.58425 5.31402 2.19231C5.31402 1.47436 5.08268 0.930403 4.62001 0.560439C4.15733 0.186813 3.47852 0 2.58356 0H0ZM1.51974 6.67582V4.51648H2.91283C3.61191 4.52747 3.96145 4.89927 3.96145 5.63187C3.96145 5.95788 3.86014 6.21429 3.65751 6.4011C3.45825 6.58425 3.17963 6.67582 2.82165 6.67582H1.51974ZM2.64435 3.35165H1.51974V1.33517H2.58356C3.00233 1.33517 3.30797 1.41575 3.50047 1.57692C3.69634 1.73443 3.79428 1.99451 3.79428 2.35714C3.79428 3.00549 3.41097 3.337 2.64435 3.35165Z" />
    <path d="M7.50306 6.35165H10.1677L10.6793 8H12.2953L9.53444 0H8.12615L5.38049 8H6.99648L7.50306 6.35165ZM9.75734 5.01648H7.91339L8.8303 2.02198L9.75734 5.01648Z" />
    <path d="M12.3618 8V0H14.6312C15.2797 0 15.8589 0.159341 16.3688 0.478022C16.8821 0.79304 17.2823 1.24359 17.5694 1.82967C17.8565 2.41209 18 3.07509 18 3.81868V4.18681C18 4.9304 17.8582 5.59158 17.5745 6.17033C17.2942 6.74908 16.8973 7.1978 16.384 7.51648C15.8707 7.83516 15.2915 7.99634 14.6464 8H12.3618ZM13.8815 1.33517V6.67582H14.616C15.2104 6.67582 15.6647 6.4652 15.9787 6.04396C16.2928 5.62271 16.4532 5.02015 16.46 4.23626V3.81319C16.46 3 16.3046 2.38462 15.9939 1.96703C15.6832 1.54579 15.229 1.33517 14.6312 1.33517H13.8815Z" />
  </g>
</svg>
