<svg viewBox="0 0 24 24" xmlns="http://www.w3.org/2000/svg">
  <path d="M12.0029 4C9.79295 4 8.00142 5.79086 8.00142 8C8.00142 9.06087 8.423 10.0783 9.17343 10.8284C9.92386 11.5786 10.9417 12 12.0029 12C14.2129 12 16.0044 10.2091 16.0044 8C16.0044 5.79086 14.2129 4 12.0029 4ZM18.4554 15.66L19.8959 18.55C20.0519 18.8595 20.0365 19.2277 19.8551 19.5231C19.6738 19.8185 19.3523 19.999 19.0056 20H5.00028C4.65356 19.999 4.3321 19.8185 4.15072 19.5231C3.96935 19.2277 3.95392 18.8595 4.10994 18.55L5.55049 15.66C6.05948 14.6408 7.10197 13.9978 8.24151 14H15.7644C16.9039 13.9978 17.9464 14.6408 18.4554 15.66Z" fill="currentColor" />
</svg>