<svg xmlns="http://www.w3.org/2000/svg" viewBox="0 0 16 8">
  <g fill="currentColor">
    <path d="M3.37348 6.01648L5.05767 0H6.76227L4.17475 8H2.57732L0 0H1.6995L3.37348 6.01648Z" />
    <path d="M8.9901 8H7.45902V0H8.9901V8Z" />
    <path d="M11.8406 8V5.18132H13.1828C14.064 5.18132 14.753 4.95604 15.2498 4.50549C15.7499 4.05128 16 3.43223 16 2.64835C16 2.13187 15.886 1.67216 15.6581 1.26923C15.4301 0.862638 15.1035 0.549451 14.6782 0.32967C14.2563 0.10989 13.7663 0 13.2083 0H10.3095V8H11.8406ZM13.2083 3.84615H11.8406V1.33517H13.2441C13.6217 1.34249 13.9177 1.46703 14.1321 1.70879C14.3464 1.95055 14.4536 2.2674 14.4536 2.65934C14.4536 3.04029 14.3464 3.33333 14.1321 3.53846C13.9211 3.74359 13.6132 3.84615 13.2083 3.84615Z" />
  </g>
</svg>
