<svg fill="currentColor" viewBox="0 0 24 24" xmlns="http://www.w3.org/2000/svg">
    <path d="M16 16.003V17.003C16 17.2791 15.7761 17.503 15.4998 17.503H5.99507V19.503C5.99226 19.703 5.87044 19.8821 5.6854 19.9583C5.50035 20.0344 5.2877 19.993 5.14481 19.853L2.14388 16.853C1.95204 16.6551 1.95204 16.3408 2.14388 16.143L5.14481 13.143C5.289 13.0016 5.50405 12.9609 5.68998 13.0396C5.87591 13.1183 5.99625 13.3011 5.99507 13.503V15.503H15.4998C15.7761 15.503 16 15.7268 16 16.003Z" />
    <path d="M8 7.00295V8.00295C8 8.27909 8.22393 8.50295 8.50015 8.50295H18.0049V10.503C18.0077 10.703 18.1296 10.8821 18.3146 10.9583C18.4996 11.0344 18.7123 10.993 18.8552 10.853L21.8561 7.85295C22.048 7.65514 22.048 7.34076 21.8561 7.14295L18.8552 4.14295C18.711 4.00165 18.496 3.96088 18.31 4.0396C18.1241 4.11833 18.0037 4.3011 18.0049 4.50295V6.50295H8.50015C8.22393 6.50295 8 6.72681 8 7.00295Z" />
</svg>