<svg xmlns="http://www.w3.org/2000/svg" viewBox="0 0 24 24">
  <path d="M11.2799 8.22C11.4204 8.07931 11.611 8.00018 11.8099 8H12.1899C12.3883 8.0023 12.5781 8.08112 12.7199 8.22L17.8499 13.36C17.9445 13.4539 17.9978 13.5817 17.9978 13.715C17.9978 13.8483 17.9445 13.9761 17.8499 14.07L17.1399 14.78C17.0477 14.8741 16.9215 14.9271 16.7899 14.9271C16.6582 14.9271 16.532 14.8741 16.4399 14.78L11.9999 10.33L7.55985 14.78C7.46597 14.8747 7.33817 14.9279 7.20485 14.9279C7.07153 14.9279 6.94374 14.8747 6.84985 14.78L6.14985 14.07C6.0552 13.9761 6.00195 13.8483 6.00195 13.715C6.00195 13.5817 6.0552 13.4539 6.14985 13.36L11.2799 8.22Z" fill="currentColor" />
</svg>