<svg viewBox="0 0 24 24" xmlns="http://www.w3.org/2000/svg">
  <path d="M12.7199 15.7802C12.5793 15.9209 12.3887 16 12.1899 16.0002H11.8099C11.6114 15.9979 11.4216 15.919 11.2799 15.7802L6.14985 10.6402C6.0552 10.5463 6.00195 10.4185 6.00195 10.2852C6.00195 10.1518 6.0552 10.024 6.14985 9.93016L6.85985 9.22016C6.95202 9.1261 7.07816 9.07309 7.20985 9.07309C7.34154 9.07309 7.46769 9.1261 7.55985 9.22016L11.9999 13.6702L16.4399 9.22016C16.5337 9.12551 16.6615 9.07227 16.7949 9.07227C16.9282 9.07227 17.056 9.12551 17.1499 9.22016L17.8499 9.93016C17.9445 10.024 17.9978 10.1518 17.9978 10.2852C17.9978 10.4185 17.9445 10.5463 17.8499 10.6402L12.7199 15.7802Z" fill="currentColor" />
</svg>