<svg xmlns="http://www.w3.org/2000/svg" viewBox="0 0 24 24">
  <path d="M15.7802 11.2799C15.9209 11.4204 16 11.611 16.0002 11.8099V12.1899C15.9979 12.3883 15.919 12.5781 15.7802 12.7199L10.6402 17.8499C10.5463 17.9445 10.4185 17.9978 10.2852 17.9978C10.1518 17.9978 10.024 17.9445 9.93016 17.8499L9.22016 17.1399C9.1261 17.0477 9.07309 16.9215 9.07309 16.7899C9.07309 16.6582 9.1261 16.532 9.22016 16.4399L13.6702 11.9999L9.22016 7.55985C9.12551 7.46597 9.07227 7.33817 9.07227 7.20485C9.07227 7.07153 9.12551 6.94374 9.22016 6.84985L9.93016 6.14985C10.024 6.0552 10.1518 6.00195 10.2852 6.00195C10.4185 6.00195 10.5463 6.0552 10.6402 6.14985L15.7802 11.2799Z" fill="currentColor" />
</svg>