<svg xmlns="http://www.w3.org/2000/svg" viewBox="0 0 24 24">
  <path
    d="M16.288 9.29505C16.288 9.16174 16.2347 9.03394 16.1401 8.94005L12.3501 5.15005C12.2593 5.05338 12.1326 4.99854 12.0001 4.99854C11.8675 4.99854 11.7408 5.05338 11.6501 5.15005L7.86006 8.94005C7.7654 9.03394 7.71216 9.16174 7.71216 9.29505C7.71216 9.42837 7.7654 9.55617 7.86006 9.65005L8.06006 9.85005C8.15413 9.94771 8.28447 10.002 8.42006 10.0001H15.5801C15.7156 10.002 15.846 9.94771 15.9401 9.85005L16.1401 9.65005C16.2347 9.55617 16.288 9.42837 16.288 9.29505ZM7.71216 14.7051C7.71216 14.8384 7.7654 14.9662 7.86006 15.0601L11.6501 18.8501C11.7408 18.9467 11.8675 19.0016 12.0001 19.0016C12.1326 19.0016 12.2593 18.9467 12.3501 18.8501L16.1401 15.0601C16.2347 14.9662 16.288 14.8384 16.288 14.7051C16.288 14.5717 16.2347 14.4439 16.1401 14.3501L15.9401 14.1501C15.846 14.0524 15.7156 13.9981 15.5801 14.0001H8.42006C8.28447 13.9981 8.15413 14.0524 8.06006 14.1501L7.86006 14.3501C7.7654 14.4439 7.71216 14.5717 7.71216 14.7051Z"
    fill="currentColor"
    fill-rule="evenodd"
    clip-rule="evenodd"
  />
</svg>