<svg fill="currentColor" viewBox="0 0 24 24" xmlns="http://www.w3.org/2000/svg">
  <path d="M14.5289 9.19742L14.5358 9.20153L15.2977 9.64938C15.3486 9.67932 15.3907 9.71888 15.4228 9.76445L15.4452 9.80394C15.4806 9.86637 15.4976 9.93455 15.4977 10.002C15.4976 10.0694 15.4806 10.1376 15.4452 10.2L15.4228 10.2395C15.3907 10.2851 15.3486 10.3246 15.2977 10.3546L9.18228 13.9491C8.99183 14.061 8.7491 13.996 8.64012 13.8038L8.05253 12.7677C7.94355 12.5755 8.0096 12.329 8.20005 12.217L11.9686 10.0019L8.20027 7.78685C8.00982 7.67491 7.94377 7.42838 8.05275 7.23621L8.64034 6.20005C8.74932 6.00789 8.99205 5.94286 9.1825 6.0548L14.5289 9.19742Z" />
  <path d="M16 17.6C16 17.8209 15.8209 18 15.6 18H8.4C8.17909 18 8 17.8209 8 17.6V16.4C8 16.1791 8.17909 16 8.4 16H15.6C15.8209 16 16 16.1791 16 16.4V17.6Z" />
</svg>