<svg fill="currentColor" viewBox="0 0 24 24" xmlns="http://www.w3.org/2000/svg">
  <path d="M8.15837 17.501C8.00693 17.4166 7.95504 17.2299 8.04247 17.0838L14.5864 6.15274C14.6739 6.00668 14.8675 5.95664 15.019 6.04096L15.8416 6.49902C15.9931 6.58335 16.045 6.77012 15.9575 6.91617L9.41358 17.8473C9.32614 17.9933 9.13248 18.0434 8.98104 17.959L8.15837 17.501Z" />
  <path d="M12.1181 15H16.5C16.7761 15 17 14.8209 17 14.6V13.4C17 13.1791 16.7761 13 16.5 13H13.3154L12.1181 15Z" />
  <path d="M14.5127 11H16.5C16.7761 11 17 10.8209 17 10.6V9.4C17 9.17909 16.7761 9 16.5 9H15.71L14.5127 11Z" />
  <path d="M13.8819 9L12.6846 11H7.5C7.22386 11 7 10.8209 7 10.6V9.4C7 9.17909 7.22386 9 7.5 9H13.8819Z" />
  <path d="M11.4873 13L10.29 15H7.5C7.22386 15 7 14.8209 7 14.6V13.4C7 13.1791 7.22386 13 7.5 13H11.4873Z" />
</svg>