<svg fill="currentColor" viewBox="0 0 24 24" xmlns="http://www.w3.org/2000/svg">
  <path d="M9.47106 9.19742L9.46423 9.20153L8.70231 9.64938C8.65138 9.67932 8.60935 9.71888 8.57718 9.76445L8.55478 9.80394C8.51938 9.86637 8.50244 9.93455 8.50225 10.002C8.50244 10.0694 8.51938 10.1376 8.55478 10.2L8.57718 10.2395C8.60935 10.2851 8.65138 10.3246 8.70231 10.3546L14.8177 13.9491C15.0082 14.061 15.2509 13.996 15.3599 13.8038L15.9475 12.7677C16.0564 12.5755 15.9904 12.329 15.7999 12.217L12.0314 10.0019L15.7997 7.78685C15.9902 7.67491 16.0562 7.42838 15.9473 7.23621L15.3597 6.20005C15.2507 6.00789 15.0079 5.94286 14.8175 6.0548L9.47106 9.19742Z" />
  <path d="M8 17.6C8 17.8209 8.17909 18 8.4 18H15.6C15.8209 18 16 17.8209 16 17.6V16.4C16 16.1791 15.8209 16 15.6 16H8.4C8.17909 16 8 16.1791 8 16.4V17.6Z" />
</svg>