<svg viewBox="0 0 24 24" xmlns="http://www.w3.org/2000/svg">
  <path d="M8.96929 11.1935L8.96246 11.1976L8.20054 11.6455C8.14961 11.6754 8.10758 11.715 8.07541 11.7605L8.05302 11.8C8.01761 11.8625 8.00068 11.9306 8.00049 11.9981C8.00068 12.0655 8.01761 12.1337 8.05302 12.1961L8.07541 12.2356C8.10758 12.2812 8.14961 12.3207 8.20054 12.3507L14.316 15.9452C14.5064 16.0571 14.7491 15.9921 14.8581 15.7999L15.4457 14.7638C15.5547 14.5716 15.4886 14.3251 15.2982 14.2131L11.5296 11.998L15.298 9.78295C15.4884 9.671 15.5545 9.42447 15.4455 9.2323L14.8579 8.19614C14.7489 8.00398 14.5062 7.93895 14.3157 8.05089L8.96929 11.1935Z" fill="currentColor" />
</svg>