<svg viewBox="0 0 24 24" xmlns="http://www.w3.org/2000/svg">
  <path d="M14.5358 11.2015C14.5335 11.2001 14.5312 11.1988 14.5289 11.1974L9.1825 8.0548C8.99205 7.94286 8.74932 8.00789 8.64034 8.20005L8.05275 9.23621C7.94377 9.42838 8.00982 9.67491 8.20027 9.78685L11.9686 12.0019L8.20005 14.217C8.0096 14.329 7.94355 14.5755 8.05253 14.7677L8.64012 15.8038C8.7491 15.996 8.99183 16.061 9.18228 15.9491L15.2977 12.3546C15.3486 12.3246 15.3907 12.2851 15.4228 12.2395L15.4452 12.2C15.4806 12.1376 15.4976 12.0694 15.4977 12.002C15.4976 11.9345 15.4806 11.8664 15.4452 11.8039L15.4228 11.7644C15.3907 11.7189 15.3486 11.6793 15.2977 11.6494L14.5358 11.2015Z" fill="currentColor" />
</svg>