<svg viewBox="0 0 24 24" xmlns="http://www.w3.org/2000/svg">
  <path d="M8.9279 15.7949C8.9279 15.9282 8.87466 16.056 8.78 16.1499L8.07 16.8499C7.97612 16.9445 7.84832 16.9978 7.715 16.9978C7.58168 16.9978 7.45388 16.9445 7.36 16.8499L3.22 12.7199C3.07931 12.5793 3.00018 12.3887 3 12.1899V11.8099C3.0023 11.6114 3.08112 11.4216 3.22 11.2799L7.35 7.14985C7.44388 7.0552 7.57168 7.00195 7.705 7.00195C7.83832 7.00195 7.96612 7.0552 8.06 7.14985L8.77 7.85985C8.86406 7.95202 8.91707 8.07816 8.91707 8.20985C8.91707 8.34154 8.86406 8.46769 8.77 8.55985L5.33 11.9999L8.78 15.4399C8.87466 15.5337 8.9279 15.6615 8.9279 15.7949ZM16.285 7.00195C16.1517 7.00195 16.0239 7.0552 15.93 7.14985L15.22 7.84985C15.1253 7.94374 15.0721 8.07153 15.0721 8.20485C15.0721 8.33817 15.1253 8.46597 15.22 8.55985L18.67 11.9999L15.22 15.4399C15.1259 15.532 15.0729 15.6582 15.0729 15.7899C15.0729 15.9215 15.1259 16.0477 15.22 16.1399L15.93 16.8499C16.0239 16.9445 16.1517 16.9978 16.285 16.9978C16.4183 16.9978 16.5461 16.9445 16.64 16.8499L20.78 12.7199C20.9189 12.5781 20.9977 12.3883 21 12.1899V11.8099C20.9998 11.611 20.9207 11.4204 20.78 11.2799L16.64 7.14985C16.5461 7.0552 16.4183 7.00195 16.285 7.00195Z" fill="currentColor" />
</svg>