<svg xmlns="http://www.w3.org/2000/svg" viewBox="0 0 24 24">
    <path
        d="M22.9402 2.8598L22.6602 3.6298C22.4618 4.18209 22.1443 4.68395 21.7302 5.0998L17.4102 9.4198L19.4602 19.6498C19.4695 19.7763 19.4695 19.9033 19.4602 20.0298C19.4622 20.5416 19.2565 21.0323 18.8902 21.3898L18.7202 21.5598C18.6327 21.6539 18.5085 21.705 18.3802 21.6998C18.2128 21.6999 18.0574 21.6127 17.9702 21.4698L13.8202 12.9998L9.67019 16.4498L10.1102 21.6498C10.1066 21.9038 10.0065 22.1469 9.8302 22.3298L9.30019 22.8598C9.19036 22.9691 9.03453 23.0186 8.88177 22.9928C8.729 22.967 8.59807 22.8691 8.5302 22.7298L6.1102 17.8898L1.2702 15.4698C1.13093 15.4019 1.03298 15.271 1.00719 15.1182C0.981401 14.9655 1.03093 14.8096 1.1402 14.6998L1.6702 14.1698C1.85307 13.9935 2.09619 13.8934 2.3502 13.8898L7.4802 14.3198L11.0002 10.1798L2.5302 5.9998C2.38727 5.9126 2.30011 5.75722 2.3002 5.5898C2.295 5.46146 2.34614 5.33727 2.4402 5.2498L2.6102 5.0798C2.97315 4.70222 3.47651 4.49219 4.0002 4.4998C4.12669 4.49046 4.2537 4.49046 4.3802 4.4998L14.5802 6.5898L18.9002 2.2698C19.316 1.85572 19.8179 1.53821 20.3702 1.3398L21.1402 1.0598C21.5051 0.925848 21.9147 1.01555 22.1902 1.2898L22.7102 1.8098C22.9844 2.08534 23.0741 2.49484 22.9402 2.8598Z"
        fill="currentColor"
    />
</svg>
