<svg viewBox="0 0 24 24" xmlns="http://www.w3.org/2000/svg">
    <path
        d="M8.00864 5.07989C7.9841 5.16401 8.01299 5.25526 8.08057 5.30705L10.0067 7.04865L9.43127 9.67787C9.41178 9.76149 9.44168 9.84928 9.50719 9.90082L9.59511 9.96393C9.6627 10.012 9.75129 10.012 9.81889 9.96393L12.0048 8.56308L14.1787 9.9513C14.2463 9.9994 14.3349 9.9994 14.4025 9.9513L14.5183 9.884C14.5839 9.83245 14.6138 9.74466 14.5943 9.66104L14.0028 7.04865L15.929 5.30705C15.9922 5.25202 16.0161 5.16135 15.9889 5.07989L15.957 4.97472C15.9336 4.8916 15.8633 4.83276 15.7811 4.82748L13.2276 4.61294L12.2445 2.13516C12.2156 2.05273 12.1402 1.99868 12.0567 2.00054H11.9528C11.8643 1.99391 11.7819 2.04836 11.749 2.13516L10.77 4.61294L8.21644 4.82748C8.13425 4.83276 8.06398 4.8916 8.04061 4.97472L8.00864 5.07989ZM10 12H14C14.5523 12 15 12.4477 15 13V20V21H14H10H9V20V13C9 12.4477 9.44772 12 10 12ZM16 20.0001V15L17 15H19C19.5523 15 20 15.4477 20 16V20C20 20.5523 19.5523 21 19 21H17H16V20.0001ZM5 15H7H8V17V20V21H7H5C4.44772 21 4 20.5523 4 20V16C4 15.4477 4.44772 15 5 15Z"
        fill="currentColor"
        fill-rule="evenodd"
        clip-rule="evenodd"
    />
</svg>