<svg xmlns="http://www.w3.org/2000/svg" viewBox="0 0 24 24">
    <path
        d="M17.0001 5H19.0001C20.1046 5 21.0001 5.89543 21.0001 7V9C21.0001 10.1046 20.1046 11 19.0001 11H16.0901L15.4501 14.54C15.1894 15.9645 13.9483 16.9995 12.5001 17H7.50008C6.04873 16.9986 4.80648 15.9585 4.55008 14.53L3.10008 6.53C3.03164 6.17749 2.99815 5.81909 3.00008 5.46V4C3.00008 3.44772 3.44779 3 4.00008 3H16.0001C16.5524 3 17.0001 3.44772 17.0001 4V5ZM14.9401 6.17C14.9803 5.93548 15.0004 5.69795 15.0001 5.46V5H5.00008V5.46C4.98654 5.6968 4.99323 5.93433 5.02008 6.17L6.48008 14.17C6.56805 14.6511 6.99108 14.998 7.48008 14.99H12.4801C12.9691 14.998 13.3921 14.6511 13.4801 14.17L14.9401 6.17ZM19.0001 9H16.4501L16.8201 7H19.0001V9ZM3.50008 19H17.5001C17.7762 19 18.0001 19.2239 18.0001 19.5V20.5C18.0001 20.7761 17.7762 21 17.5001 21H3.50008C3.22394 21 3.00008 20.7761 3.00008 20.5V19.5C3.00008 19.2239 3.22394 19 3.50008 19Z"
        fill="currentColor"
        fill-rule="evenodd"
        clip-rule="evenodd"
    />
</svg>
