<svg viewBox="0 0 24 24" xmlns="http://www.w3.org/2000/svg">
  <path d="M12 2C6.47715 2 2 6.47715 2 12C2 17.5228 6.47715 22 12 22C17.5228 22 22 17.5228 22 12C22 9.34784 20.9464 6.8043 19.0711 4.92893C17.1957 3.05357 14.6522 2 12 2ZM12 20C7.79747 19.9713 4.3336 16.6958 4.0703 12.5014C3.807 8.30702 6.83405 4.624 11 4.07V4.5C11 4.77614 10.7761 5 10.5 5C10.2239 5 10 5.22386 10 5.5V6.5C10 6.77614 10.2239 7 10.5 7H13.5C13.6307 6.99455 13.758 7.0427 13.8524 7.13332C13.9468 7.22393 14.0001 7.34915 14 7.48C13.9973 7.61527 14.0485 7.74606 14.1423 7.84358C14.236 7.94111 14.3647 7.99737 14.5 8C14.8978 8 15.2794 8.15804 15.5607 8.43934C15.842 8.72064 16 9.10218 16 9.5V11H15C14.4477 11 14 10.5523 14 10V9.5C14 9.22386 13.7761 9 13.5 9H11.5C11.2239 9 11 8.77614 11 8.5C11 8.22386 10.7761 8 10.5 8H9.5C9.22386 8 9 8.22386 9 8.5V9C9 9.55228 8.55228 10 8 10C7.44772 10 7 10.4477 7 11V12C7 12.5523 7.44772 13 8 13H9.59C9.85234 13.0011 10.1037 13.1053 10.29 13.29L10.71 13.71C10.8947 13.8963 10.9989 14.1477 11 14.41V17C11 17.5523 11.4477 18 12 18H12.5C12.7761 18 13 17.7761 13 17.5C13 17.2239 13.2239 17 13.5 17C13.8978 17 14.2794 16.842 14.5607 16.5607C14.842 16.2794 15 15.8978 15 15.5V13.5C14.9938 13.2404 15.1912 13.0211 15.45 13C15.7337 13.0172 15.9787 12.8034 16 12.52V11H17C17.5523 11 18 10.5523 18 10V9H19.41C19.8001 9.95204 20.0006 10.9711 20 12C20 14.1217 19.1571 16.1566 17.6569 17.6569C16.1566 19.1571 14.1217 20 12 20Z" fill="currentColor" />
</svg>