<svg viewBox="0 0 24 24" xmlns="http://www.w3.org/2000/svg">
  <path d="M14.6746 4.60094L15.2194 3.34277C15.3546 3.05352 15.339 2.7065 15.1785 2.43197C15.018 2.15744 14.7368 1.99693 14.4405 2.01069L9.49935 2.00001C9.21391 1.99892 8.94848 2.15858 8.79618 2.42295C8.64388 2.68733 8.62598 3.01951 8.74875 3.30294L9.29807 4.56348C9.45429 4.92145 9.50044 5.32503 9.42954 5.71333L8.80631 9.1542C8.71368 9.69487 8.47474 10.1917 8.12064 10.58L7.2459 11.5404C7.08895 11.7107 7.00047 11.9429 7 12.1857L7.02453 12.7411C7.02679 13.2434 7.39806 13.651 7.85557 13.6535L16.1673 13.678C16.6248 13.6775 16.9946 13.2714 16.9951 12.7691L17 12.2331C16.9987 11.9904 16.9093 11.7578 16.7518 11.5868L15.8736 10.6226C15.5181 10.2328 15.2774 9.7349 15.1828 9.19383L14.5472 5.75023C14.4749 5.36162 14.5196 4.95824 14.6746 4.60094Z" fill="currentColor"/>
  <path d="M10.967 20.0474C10.836 19.7057 10.7693 19.3387 10.771 18.9685L10.7642 15.1969L13.1878 15.2538L13.1946 19.0125C13.1975 19.3827 13.1322 19.7494 13.0024 20.0906L12.3641 21.7231C12.2991 21.8913 12.1489 22.0002 11.9823 22C11.8157 21.9995 11.665 21.8899 11.5994 21.7215L10.967 20.0474Z" fill="currentColor"/>
</svg>