<svg xmlns="http://www.w3.org/2000/svg" viewBox="0 0 24 24">
  <path
    d="M19.5 5H4.5C4.22386 5 4 4.77614 4 4.5V3.5C4 3.22386 4.22386 3 4.5 3H19.5C19.7761 3 20 3.22386 20 3.5V4.5C20 4.77614 19.7761 5 19.5 5ZM21.79 10.58L20.28 7.58C20.1089 7.2405 19.7602 7.02735 19.38 7.03H4.62C4.23984 7.02735 3.89107 7.2405 3.72 7.58L2.21 10.58C2.07221 10.8565 2.00033 11.1611 2 11.47V12C2 12.5523 2.44772 13 3 13H4V20C4 20.5523 4.44772 21 5 21H10C10.5523 21 11 20.5523 11 20V17.25C11 17.1119 11.1119 17 11.25 17H12.75C12.8881 17 13 17.1119 13 17.25V20C13 20.5523 13.4477 21 14 21H19C19.5523 21 20 20.5523 20 20V13H21C21.5523 13 22 12.5523 22 12V11.47C21.9997 11.1611 21.9278 10.8565 21.79 10.58ZM18 19H15V16C15 15.4477 14.5523 15 14 15H10C9.44772 15 9 15.4477 9 16V19H6V13H18V19Z"
    fill="currentColor"
    fill-rule="evenodd"
    clip-rule="evenodd"
  />
</svg>