<svg viewBox="0 0 24 24" xmlns="http://www.w3.org/2000/svg">
  <path
    d="M17 7H20C20.5523 7 21 7.44772 21 8V20C21 21.1046 20.1046 22 19 22H5C3.89543 22 3 21.1046 3 20V8C3 7.44772 3.44772 7 4 7H7C7 4.23858 9.23858 2 12 2C14.7614 2 17 4.23858 17 7ZM8.5 11C8.77614 11 9 10.7761 9 10.5V9.5C9 9.22386 8.77614 9 8.5 9H7.5C7.22386 9 7 9.22386 7 9.5V10.5C7 10.7761 7.22386 11 7.5 11H8.5ZM12 4C13.6569 4 15 5.34315 15 7H9C9 5.34315 10.3431 4 12 4ZM16.5 11C16.7761 11 17 10.7761 17 10.5V9.5C17 9.22386 16.7761 9 16.5 9H15.5C15.2239 9 15 9.22386 15 9.5V10.5C15 10.7761 15.2239 11 15.5 11H16.5Z"
    fill="currentColor"
    fill-rule="evenodd"
    clip-rule="evenodd"
  />
</svg>