<svg
    fill="currentColor"
    viewBox="0 0 24 24"
    xmlns="http://www.w3.org/2000/svg"
>
    <path
        d="M11.553 2.10557C11.8345 1.96481 12.1659 1.96481 12.4474 2.10557L21.4474 6.60557C21.9414 6.85256 22.1416 7.45324 21.8946 7.94721C21.6477 8.44119 21.047 8.64142 20.553 8.39443L12.0002 4.11803L3.44743 8.39443C2.95345 8.64142 2.35278 8.44119 2.10579 7.94721C1.8588 7.45324 2.05903 6.85256 2.55301 6.60557L11.553 2.10557Z"
    />
    <path
        d="M11.5528 5.60557C11.8343 5.46481 12.1657 5.46481 12.4472 5.60557L21.4472 10.1056C21.786 10.275 22 10.6212 22 11V21C22 21.5523 21.5523 22 21 22H3C2.44772 22 2 21.5523 2 21V11C2 10.6212 2.214 10.275 2.55279 10.1056L11.5528 5.60557ZM20 20H17V17C17 16.4477 16.5523 16 16 16H15V13C15 12.4477 14.5523 12 14 12H10C9.44772 12 9 12.4477 9 13V16H8C7.44772 16 7 16.4477 7 17V20H4V11.618L12 7.61803L20 11.618V20ZM11 16H13V14H11V16ZM9 18V20H11V18H9ZM13 18V20H15V18H13Z"
        fill-rule="evenodd"
        clip-rule="evenodd"
    />
</svg>