<svg xmlns="http://www.w3.org/2000/svg" viewBox="0 0 24 24">
  <path
    d="M20.875 19.4598L16.875 15.455C16.7454 15.3222 16.6012 15.2046 16.445 15.1046L15.445 14.4137C17.5019 11.8655 17.521 8.23056 15.491 5.66082C13.461 3.09109 9.92359 2.27241 6.9731 3.68949C4.0226 5.10656 2.44643 8.38118 3.17773 11.5747C3.90902 14.7682 6.75261 17.0283 10.025 17.0169C11.613 17.0173 13.1541 16.4772 14.395 15.485L15.145 16.4862C15.234 16.6152 15.3344 16.7358 15.445 16.8467L19.445 20.8515C19.5389 20.9463 19.6667 20.9996 19.8 20.9996C19.9333 20.9996 20.0611 20.9463 20.155 20.8515L20.855 20.1507C21.0448 19.9627 21.0536 19.6585 20.875 19.4598ZM10.025 15.0145C7.26357 15.0145 5.025 12.7732 5.025 10.0084C5.025 7.24369 7.26357 5.00241 10.025 5.00241C12.7864 5.00241 15.025 7.24369 15.025 10.0084C15.025 11.3361 14.4982 12.6094 13.5605 13.5482C12.6228 14.487 11.3511 15.0145 10.025 15.0145ZM8.5 10C8.5 10.5523 8.05228 11 7.5 11C6.94772 11 6.5 10.5523 6.5 10C6.5 9.44772 6.94772 9 7.5 9C8.05228 9 8.5 9.44772 8.5 10ZM11 10C11 10.5523 10.5523 11 10 11C9.44772 11 9 10.5523 9 10C9 9.44772 9.44772 9 10 9C10.5523 9 11 9.44772 11 10ZM12.5 11C13.0523 11 13.5 10.5523 13.5 10C13.5 9.44772 13.0523 9 12.5 9C11.9477 9 11.5 9.44772 11.5 10C11.5 10.5523 11.9477 11 12.5 11Z"
    fill="currentColor"
    fill-rule="evenodd"
    clip-rule="evenodd"
  />
</svg>
