<svg viewBox="0 0 24 24" xmlns="http://www.w3.org/2000/svg">
  <path
    d="M10 17.25V6.75C9.99461 6.33804 9.66196 6.00539 9.25 6H7.75C7.33804 6.00539 7.00539 6.33804 7 6.75V17.25C7.00539 17.662 7.33804 17.9946 7.75 18H9.25C9.66196 17.9946 9.99461 17.662 10 17.25ZM14.75 6H16.25C16.662 6.00539 16.9946 6.33804 17 6.75V17.25C16.9946 17.662 16.662 17.9946 16.25 18H14.75C14.338 17.9946 14.0054 17.662 14 17.25V6.75C14.0054 6.33804 14.338 6.00539 14.75 6Z"
    fill="currentColor"
    fill-rule="evenodd"
    clip-rule="evenodd"
  />
</svg>