<svg xmlns="http://www.w3.org/2000/svg" viewBox="0 0 24 24">
  <path d="M12 2C6.47715 2 2 6.47715 2 12c0 5.5228 4.47715 10 10 10 5.5228 0 10-4.4772 10-10 0-2.65216-1.0536-5.1957-2.9289-7.07107C17.1957 3.05357 14.6522 2 12 2Zm0 18c-4.41828 0-8-3.5817-8-8 0-4.41828 3.58172-8 8-8 4.4183 0 8 3.58172 8 8 0 2.1217-.8429 4.1566-2.3431 5.6569C16.1566 19.1571 14.1217 20 12 20ZM9.38965 7.69666c.23888-.13087.52994-.12194.76035.02334L16 11.36c.2182.1397.3501.3809.3501.64s-.1319.5003-.3501.64l-5.85 3.64c-.23041.1453-.52147.1542-.76035.0233-.23889-.1308-.38804-.3809-.38965-.6533v-7.3c.00161-.27238.15076-.52248.38965-.65334Z" fill="currentColor" />
</svg>