<svg viewBox="0 0 24 24" xmlns="http://www.w3.org/2000/svg">
  <path
    d="M2 12C2 6.47715 6.47715 2 12 2C14.6522 2 17.1957 3.05357 19.0711 4.92893C20.9464 6.8043 22 9.34784 22 12C22 17.5228 17.5228 22 12 22C6.47715 22 2 17.5228 2 12ZM10.17 16.28L16 12.64C16.2182 12.5003 16.3501 12.2591 16.3501 12C16.3501 11.7409 16.2182 11.4997 16 11.36L10.15 7.72C9.91959 7.57472 9.62853 7.56579 9.38965 7.69666C9.15076 7.82752 9.00161 8.07762 9 8.35V15.65C8.99678 15.929 9.1487 16.1867 9.39438 16.319C9.64005 16.4513 9.93884 16.4363 10.17 16.28Z"
    fill="currentColor"
    fill-rule="evenodd"
    clip-rule="evenodd"
  />
</svg>