<svg xmlns="http://www.w3.org/2000/svg" viewBox="0 0 24 24">
  <path
    d="M18 2C20.2091 2 22 3.79086 22 6V9.54071C21.3935 9.1622 20.7195 8.88194 20 8.72219V6C20 4.89543 19.1046 4 18 4H6C4.89543 4 4 4.89543 4 6V17.88L4.46 17.46C5.39951 16.5229 6.67301 15.9976 8 16H12.2466C12.3577 16.7121 12.5858 17.3855 12.9105 18H8C7.19856 17.9847 6.42433 18.2908 5.85 18.85L2.85 21.85C2.75833 21.9451 2.63212 21.9992 2.5 22C2.22386 22 2 21.7761 2 21.5V6C2 3.79086 3.79086 2 6 2H18ZM23.2095 15.0001C23.2095 17.5458 21.1458 19.6095 18.6001 19.6095C16.0543 19.6095 13.9906 17.5458 13.9906 15.0001C13.9906 12.4543 16.0543 10.3906 18.6001 10.3906C21.1458 10.3906 23.2095 12.4543 23.2095 15.0001ZM21.3498 15C21.3498 16.5187 20.1187 17.7498 18.6 17.7498C17.0814 17.7498 15.8503 16.5187 15.8503 15C15.8503 13.4814 17.0814 12.2503 18.6 12.2503C20.1187 12.2503 21.3498 13.4814 21.3498 15Z"
    fill="currentColor"
    fill-rule="evenodd"
    clip-rule="evenodd"
  />
</svg>
