<svg xmlns="http://www.w3.org/2000/svg" viewBox="0 0 24 24">
  <path
    d="M22 6C22 3.79086 20.2091 2 18 2H6C3.79086 2 2 3.79086 2 6V21.5C2 21.7761 2.22386 22 2.5 22C2.63212 21.9992 2.75833 21.9451 2.85 21.85L5.85 18.85C6.42433 18.2908 7.19856 17.9847 8 18H18C20.2091 18 22 16.2091 22 14V6ZM18 16H8C6.67301 15.9976 5.39951 16.5229 4.46 17.46L4 17.88V6C4 4.89543 4.89543 4 6 4H18C19.1046 4 20 4.89543 20 6V14C20 15.1046 19.1046 16 18 16ZM10.35 13.848C10.2174 13.848 10.0907 13.7931 10 13.6964L7.62001 11.3264C7.52535 11.2326 7.47211 11.1048 7.47211 10.9714C7.47211 10.8381 7.52535 10.7103 7.62001 10.6164L8.15001 10.0864C8.24074 9.98976 8.36742 9.93492 8.50001 9.93492C8.63259 9.93492 8.75927 9.98976 8.85001 10.0864L10.35 11.5764L15.09 6.83644C15.2844 6.64587 15.5956 6.64587 15.79 6.83644L16.32 7.36644C16.4147 7.46032 16.4679 7.58812 16.4679 7.72144C16.4679 7.85476 16.4147 7.98256 16.32 8.07644L10.7 13.6964C10.6093 13.7931 10.4826 13.848 10.35 13.848Z"
    fill="currentColor"
    fill-rule="evenodd"
    clip-rule="evenodd"
  />
</svg>
