<svg xmlns="http://www.w3.org/2000/svg" viewBox="0 0 24 24">
  <path
    d="M10.0001 16.5798C10.002 16.7154 9.94771 16.8457 9.85005 16.9398L9.65005 17.1398C9.55617 17.2345 9.42837 17.2877 9.29505 17.2877C9.16174 17.2877 9.03394 17.2345 8.94005 17.1398L3.15005 11.3498C3.05338 11.2591 2.99854 11.1324 2.99854 10.9998C2.99854 10.8672 3.05338 10.7405 3.15005 10.6498L8.94005 4.85981C9.03394 4.76516 9.16174 4.71191 9.29505 4.71191C9.42837 4.71191 9.55617 4.76516 9.65005 4.85981L9.85005 5.05981C9.94771 5.15389 10.002 5.28423 10.0001 5.41981V7.99981C15.8555 8.10394 20.646 12.6941 21.0001 18.5398C21.0013 18.6607 20.9586 18.7779 20.8801 18.8698C20.7943 18.9531 20.6796 18.9997 20.5601 18.9998H20.4601C20.2193 18.9989 20.0134 18.8266 19.9701 18.5898C19.5001 15.9998 14.7201 13.9998 10.0001 13.9998V16.5798Z"
    fill="currentColor"
  />
</svg>
