<svg viewBox="0 0 24 24" xmlns="http://www.w3.org/2000/svg">
    <path d="M19.9675 4.94904L13.9784 21.6706C13.9069 21.8682 13.7194 21.9999 13.5092 22H13.3495C13.1535 22 12.9749 21.8874 12.8903 21.7105L10.5346 16.719C10.1877 15.9831 10.322 15.1103 10.874 14.5128L13.8686 11.2383C14.0524 11.0455 14.0524 10.7423 13.8686 10.5495L13.4893 10.1701C13.2965 9.98633 12.9933 9.98633 12.8005 10.1701L9.52644 13.165C8.92893 13.7171 8.05625 13.8514 7.32044 13.5045L2.32949 11.1485C2.13702 11.076 2.00706 10.8948 2.00009 10.6893V10.5295C1.98241 10.3049 2.11738 10.0963 2.32949 10.0204L19.0492 4.0306C19.2289 3.96459 19.4306 4.00726 19.5682 4.14042L19.8278 4.39997C19.9838 4.53626 20.0394 4.75475 19.9675 4.94904Z" fill="currentColor" />
</svg>