<svg xmlns="http://www.w3.org/2000/svg" viewBox="0 0 24 24">
  <path
    d="M19.0164 11.9857C19.0164 14.1917 17.2239 15.98 15.0127 15.98H6.00455C5.20238 15.9648 4.42744 16.2704 3.85259 16.8288L1.85077 18.826C1.75902 18.921 1.63269 18.975 1.50045 18.9757C1.22406 18.9757 1 18.7522 1 18.4765V5.99429C1 3.78831 2.79249 2 5.00364 2H15.0127C17.2239 2 19.0164 3.78831 19.0164 5.99429V11.9857ZM3.00182 5.99429V14.9815C3.86809 14.3333 4.92171 13.9829 6.00455 13.9829H15.0127C16.1183 13.9829 17.0146 13.0887 17.0146 11.9857V5.99429C17.0146 4.8913 16.1183 3.99715 15.0127 3.99715H5.00364C3.89807 3.99715 3.00182 4.8913 3.00182 5.99429ZM13.5114 9.98859H14.5123C14.7887 9.98859 15.0127 9.76505 15.0127 9.4893V8.49073C15.0127 8.21498 14.7887 7.99144 14.5123 7.99144H13.5114C13.235 7.99144 13.0109 8.21498 13.0109 8.49073V9.4893C13.0109 9.76505 13.235 9.98859 13.5114 9.98859ZM10.5086 9.98859H9.50773C9.23134 9.98859 9.00728 9.76505 9.00728 9.4893V8.49073C9.00728 8.21498 9.23134 7.99144 9.50773 7.99144H10.5086C10.785 7.99144 11.0091 8.21498 11.0091 8.49073V9.4893C11.0091 9.76505 10.785 9.98859 10.5086 9.98859ZM7.00546 9.4893V8.49073C7.00546 8.21498 6.7814 7.99144 6.505 7.99144H5.50409C5.2277 7.99144 5.00364 8.21498 5.00364 8.49073V9.4893C5.00364 9.76505 5.2277 9.98859 5.50409 9.98859H6.505C6.7814 9.98859 7.00546 9.76505 7.00546 9.4893ZM17.0146 17.9772C19.2257 17.9772 21.0182 16.1889 21.0182 13.9829V5.99429C22.1159 6.00525 23.0001 6.8962 23 7.99144V22.5007C23 22.7765 22.7759 23 22.4995 23C22.3673 22.9992 22.241 22.9452 22.1492 22.8502L20.1474 20.8531C19.5824 20.2886 18.815 19.9724 18.0155 19.9743H7.00546C5.89989 19.9743 5.00364 19.0802 5.00364 17.9772H17.0146Z"
    fill="currentColor"
    fill-rule="evenodd"
    clip-rule="evenodd"
  />
</svg>