<svg viewBox="0 0 24 24" xmlns="http://www.w3.org/2000/svg">
  <path
    d="M6 3H18C20.2091 3 22 4.79086 22 7V15C22 17.2091 20.2091 19 18 19H8C7.19856 18.9847 6.42433 19.2908 5.85 19.85L2.85 22.85C2.75833 22.9451 2.63212 22.9992 2.5 23C2.22386 23 2 22.7761 2 22.5V7C2 4.79086 3.79086 3 6 3ZM8.5 12C8.77614 12 9 11.7761 9 11.5V10.5C9 10.2239 8.77614 10 8.5 10H7.5C7.22386 10 7 10.2239 7 10.5V11.5C7 11.7761 7.22386 12 7.5 12H8.5ZM13 11.5C13 11.7761 12.7761 12 12.5 12H11.5C11.2239 12 11 11.7761 11 11.5V10.5C11 10.2239 11.2239 10 11.5 10H12.5C12.7761 10 13 10.2239 13 10.5V11.5ZM16.5 12C16.7761 12 17 11.7761 17 11.5V10.5C17 10.2239 16.7761 10 16.5 10H15.5C15.2239 10 15 10.2239 15 10.5V11.5C15 11.7761 15.2239 12 15.5 12H16.5Z"
    fill="currentColor"
    fill-rule="evenodd"
    clip-rule="evenodd"
  />
</svg>