<svg xmlns="http://www.w3.org/2000/svg" viewBox="0 0 24 24">
  <path
    d="M2 12C2 6.47715 6.47715 2 12 2C14.6522 2 17.1957 3.05357 19.0711 4.92893C20.9464 6.8043 22 9.34784 22 12C22 17.5228 17.5228 22 12 22C6.47715 22 2 17.5228 2 12ZM15.5 13C15.7761 13 16 12.7761 16 12.5V11.5C16 11.2239 15.7761 11 15.5 11H13V8.5C13 8.22386 12.7761 8 12.5 8H11.5C11.2239 8 11 8.22386 11 8.5V11H8.5C8.22386 11 8 11.2239 8 11.5V12.5C8 12.7761 8.22386 13 8.5 13H11V15.5C11 15.7761 11.2239 16 11.5 16H12.5C12.7761 16 13 15.7761 13 15.5V13H15.5Z"
    fill="currentColor"
    fill-rule="evenodd"
    clip-rule="evenodd"
  />
</svg>
