<svg viewBox="0 0 24 24" xmlns="http://www.w3.org/2000/svg">
    <path
        d="M19 3H5C3.89543 3 3 3.89543 3 5V19C3 20.1046 3.89543 21 5 21H19C20.1046 21 21 20.1046 21 19V5C21 3.89543 20.1046 3 19 3ZM19 19H5V5H19V19ZM10.35 15.5015C10.2174 15.5015 10.0907 15.4467 10 15.35L7.62 12.98C7.52534 12.8861 7.4721 12.7583 7.4721 12.625C7.4721 12.4917 7.52534 12.3639 7.62 12.27L8.15 11.74C8.24073 11.6433 8.36741 11.5885 8.5 11.5885C8.63259 11.5885 8.75927 11.6433 8.85 11.74L10.35 13.23L15.09 8.49C15.2844 8.29943 15.5956 8.29943 15.79 8.49L16.32 9.02C16.4147 9.11388 16.4679 9.24168 16.4679 9.375C16.4679 9.50832 16.4147 9.63612 16.32 9.73L10.7 15.35C10.6093 15.4467 10.4826 15.5015 10.35 15.5015Z"
        fill="currentColor"
        fill-rule="evenodd"
        clip-rule="evenodd"
    />
</svg>