<svg viewBox="0 0 24 24" fill="none" xmlns="http://www.w3.org/2000/svg">
  <path
    d="M12 2C6.47715 2 2 6.47715 2 12C2 17.5228 6.47715 22 12 22C17.5228 22 22 17.5228 22 12C22 9.34784 20.9464 6.8043 19.0711 4.92893C17.1957 3.05357 14.6522 2 12 2ZM12 20C7.58172 20 4 16.4183 4 12C4 7.58172 7.58172 4 12 4C16.4183 4 20 7.58172 20 12C20 14.1217 19.1571 16.1566 17.6569 17.6569C16.1566 19.1571 14.1217 20 12 20ZM15.12 8.49C15.3144 8.29943 15.6256 8.29943 15.82 8.49L16.32 9.02C16.4147 9.11388 16.4679 9.24168 16.4679 9.375C16.4679 9.50832 16.4147 9.63612 16.32 9.73L10.7 15.35C10.6093 15.4467 10.4826 15.5015 10.35 15.5015C10.2174 15.5015 10.0907 15.4467 10 15.35L7.65 12.98C7.55534 12.8861 7.5021 12.7583 7.5021 12.625C7.5021 12.4917 7.55534 12.3639 7.65 12.27L8.18 11.74C8.27073 11.6433 8.39741 11.5885 8.53 11.5885C8.66259 11.5885 8.78927 11.6433 8.88 11.74L10.38 13.23L15.12 8.49Z"
    fill="currentColor"
    fill-rule="evenodd"
    clip-rule="evenodd"
  />
</svg>