<svg viewBox="0 0 24 24" xmlns="http://www.w3.org/2000/svg">
  <path
    d="M4 12C4 7.58172 7.58172 4 12 4C14.1217 4 16.1566 4.84285 17.6569 6.34315C19.1571 7.84344 20 9.87827 20 12C20 16.4183 16.4183 20 12 20C7.58172 20 4 16.4183 4 12ZM15 14.0453C15 13.9226 14.9492 13.8054 14.8598 13.7214L13.1476 12L14.8598 10.2786C14.9492 10.1946 15 10.0774 15 9.95466C15 9.83196 14.9492 9.71471 14.8598 9.63074L14.3693 9.14023C14.2853 9.05076 14.168 9 14.0453 9C13.9226 9 13.8054 9.05076 13.7214 9.14023L12 10.8524L10.2786 9.14023C10.1946 9.05076 10.0774 9 9.95466 9C9.83196 9 9.71471 9.05076 9.63074 9.14023L9.14023 9.63074C9.05076 9.71471 9 9.83196 9 9.95466C9 10.0774 9.05076 10.1946 9.14023 10.2786L10.8524 12L9.14023 13.7214C9.05076 13.8054 9 13.9226 9 14.0453C9 14.168 9.05076 14.2853 9.14023 14.3693L9.63074 14.8598C9.71471 14.9492 9.83196 15 9.95466 15C10.0774 15 10.1946 14.9492 10.2786 14.8598L12 13.1476L13.7214 14.8598C13.8054 14.9492 13.9226 15 14.0453 15C14.168 15 14.2853 14.9492 14.3693 14.8598L14.8598 14.3693C14.9492 14.2853 15 14.168 15 14.0453Z"
    fill="currentColor"
    fill-rule="evenodd"
    clip-rule="evenodd"
  />
</svg>