<svg xmlns="http://www.w3.org/2000/svg" viewBox="0 0 24 24">
  <path
    d="M12 2C6.47715 2 2 6.47715 2 12C2 17.5228 6.47715 22 12 22C17.5228 22 22 17.5228 22 12C22 9.34784 20.9464 6.8043 19.0711 4.92893C17.1957 3.05357 14.6522 2 12 2ZM12 20C7.58172 20 4 16.4183 4 12C4 7.58172 7.58172 4 12 4C16.4183 4 20 7.58172 20 12C20 14.1217 19.1571 16.1566 17.6569 17.6569C16.1566 19.1571 14.1217 20 12 20ZM14.56 8.91L15.09 9.44C15.1867 9.53073 15.2415 9.65741 15.2415 9.79C15.2415 9.92259 15.1867 10.0493 15.09 10.14L13.24 12L15.09 13.86C15.1867 13.9507 15.2415 14.0774 15.2415 14.21C15.2415 14.3426 15.1867 14.4693 15.09 14.56L14.56 15.09C14.4693 15.1867 14.3426 15.2415 14.21 15.2415C14.0774 15.2415 13.9507 15.1867 13.86 15.09L12 13.24L10.14 15.09C10.0493 15.1867 9.92259 15.2415 9.79 15.2415C9.65741 15.2415 9.53073 15.1867 9.44 15.09L8.91 14.56C8.81332 14.4693 8.75848 14.3426 8.75848 14.21C8.75848 14.0774 8.81332 13.9507 8.91 13.86L10.76 12L8.91 10.14C8.81332 10.0493 8.75848 9.92259 8.75848 9.79C8.75848 9.65741 8.81332 9.53073 8.91 9.44L9.44 8.91C9.53073 8.81332 9.65741 8.75848 9.79 8.75848C9.92259 8.75848 10.0493 8.81332 10.14 8.91L12 10.76L13.86 8.91C13.9507 8.81332 14.0774 8.75848 14.21 8.75848C14.3426 8.75848 14.4693 8.81332 14.56 8.91Z"
    fill="currentColor"
    fill-rule="evenodd"
    clip-rule="evenodd"
  />
</svg>