<svg viewBox="0 0 24 24" xmlns="http://www.w3.org/2000/svg">
    <path
      d="M7.11296 6.17574C7.34728 5.94142 7.72718 5.94142 7.96149 6.17574L11.9999 10.2142L16.0383 6.17584C16.2726 5.94152 16.6525 5.94152 16.8868 6.17584L17.8236 7.11257C18.0579 7.34688 18.0579 7.72678 17.8236 7.9611L13.7852 11.9995L17.8245 16.0388C18.0589 16.2731 18.0589 16.653 17.8245 16.8873L16.8878 17.8241C16.6535 18.0584 16.2736 18.0584 16.0393 17.8241L11.9999 13.7847L7.96051 17.8242C7.7262 18.0585 7.3463 18.0585 7.11198 17.8242L6.17525 16.8874C5.94093 16.6531 5.94093 16.2732 6.17525 16.0389L10.2147 11.9995L6.17623 7.961C5.94191 7.72668 5.94191 7.34679 6.17623 7.11247L7.11296 6.17574Z"
      fill="currentColor"
    />
</svg>
