<svg viewBox="0 0 24 24" xmlns="http://www.w3.org/2000/svg">
    <path
        d="M12 2L12.4822 2.27047L14.3294 3.30667L16.4472 3.3329L17 3.33975L17.2823 3.81507L18.364 5.63604L20.1849 6.71767L20.6603 7L20.6671 7.55281L20.6933 9.67063L21.7295 11.5178L22 12L21.7295 12.4822L20.6933 14.3294L20.6671 16.4472L20.6603 17L20.1849 17.2823L18.364 18.364L17.2823 20.1849L17 20.6603L16.4472 20.6671L14.3294 20.6933L12.4822 21.7295L12 22L11.5178 21.7295L9.67063 20.6933L7.55281 20.6671L7 20.6603L6.71767 20.1849L5.63604 18.364L3.81507 17.2823L3.33975 17L3.3329 16.4472L3.30667 14.3294L2.27047 12.4822L2 12L2.27047 11.5178L3.30667 9.67063L3.3329 7.55281L3.33975 7L3.81507 6.71767L5.63604 5.63604L6.71767 3.81507L7 3.33975L7.55281 3.3329L9.67063 3.30667L11.5178 2.27047L12 2ZM12 4.26005L10.416 5.14859L10.1971 5.2714L9.94606 5.27451L8.13003 5.29701L7.20253 6.85849L7.07433 7.07433L6.85849 7.20253L5.29701 8.13003L5.27451 9.94606L5.2714 10.1971L5.14859 10.416L4.26005 12L5.14859 13.584L5.2714 13.8029L5.27451 14.0539L5.29701 15.87L6.85849 16.7975L7.07433 16.9257L7.20253 17.1415L8.13002 18.703L9.94606 18.7255L10.1971 18.7286L10.416 18.8514L12 19.74L13.584 18.8514L13.8029 18.7286L14.0539 18.7255L15.87 18.703L16.7975 17.1415L16.9257 16.9257L17.1415 16.7975L18.703 15.87L18.7255 14.0539L18.7286 13.8029L18.8514 13.584L19.74 12L18.8514 10.416L18.7286 10.1971L18.7255 9.94606L18.703 8.13002L17.1415 7.20253L16.9257 7.07433L16.7975 6.85849L15.87 5.29701L14.0539 5.27451L13.8029 5.2714L13.584 5.14859L12 4.26005ZM12.0002 9.49992C12.0002 10.8806 10.8808 11.9998 9.50008 11.9998C8.11932 11.9998 7 10.8806 7 9.49992C7 8.11925 8.11932 7 9.50008 7C10.8808 7 12.0002 8.11925 12.0002 9.49992ZM10.7498 9.49996C10.7498 10.1903 10.1902 10.7499 9.49981 10.7499C8.80943 10.7499 8.24977 10.1903 8.24977 9.49996C8.24977 8.80962 8.80943 8.25 9.49981 8.25C10.1902 8.25 10.7498 8.80962 10.7498 9.49996ZM17.0001 14.4999C17.0001 15.8806 15.8808 16.9998 14.5001 16.9998C13.1193 16.9998 12 15.8806 12 14.4999C12 13.1192 13.1193 12 14.5001 12C15.8808 12 17.0001 13.1192 17.0001 14.4999ZM15.7501 14.4999C15.7501 15.1903 15.1905 15.7499 14.5001 15.7499C13.8097 15.7499 13.2501 15.1903 13.2501 14.4999C13.2501 13.8096 13.8097 13.25 14.5001 13.25C15.1905 13.25 15.7501 13.8096 15.7501 14.4999ZM15.1422 8.07136L15.8998 8.82895L8.82853 15.8998L8.07089 15.1422L15.1422 8.07136Z"
        fill="currentColor"
        fill-rule="evenodd"
        clip-rule="evenodd"
    />
</svg>