<svg viewBox="0 0 24 24" xmlns="http://www.w3.org/2000/svg">
    <path
        d="M14.3294 3.30667L12 2L9.67063 3.30667L7 3.33975L5.63604 5.63604L3.33975 7L3.30667 9.67063L2 12L3.30667 14.3294L3.33975 17L5.63604 18.364L7 20.6603L9.67063 20.6933L12 22L14.3294 20.6933L17 20.6603L18.364 18.364L20.6603 17L20.6933 14.3294L22 12L20.6933 9.67063L20.6603 7L18.364 5.63604L17 3.33975L14.3294 3.30667ZM12.0002 9.49992C12.0002 10.8806 10.8808 11.9998 9.50008 11.9998C8.11932 11.9998 7 10.8806 7 9.49992C7 8.11925 8.11932 7 9.50008 7C10.8808 7 12.0002 8.11925 12.0002 9.49992ZM10.7498 9.49996C10.7498 10.1903 10.1902 10.7499 9.49981 10.7499C8.80943 10.7499 8.24977 10.1903 8.24977 9.49996C8.24977 8.80962 8.80943 8.25 9.49981 8.25C10.1902 8.25 10.7498 8.80962 10.7498 9.49996ZM17.0001 14.4999C17.0001 15.8806 15.8808 16.9998 14.5001 16.9998C13.1193 16.9998 12 15.8806 12 14.4999C12 13.1192 13.1193 12 14.5001 12C15.8808 12 17.0001 13.1192 17.0001 14.4999ZM15.7501 14.4999C15.7501 15.1903 15.1905 15.7499 14.5001 15.7499C13.8097 15.7499 13.2501 15.1903 13.2501 14.4999C13.2501 13.8096 13.8097 13.25 14.5001 13.25C15.1905 13.25 15.7501 13.8096 15.7501 14.4999ZM15.1422 8.07136L15.8998 8.82895L8.82853 15.8998L8.07089 15.1422L15.1422 8.07136Z"
        fill="currentColor"
        fill-rule="evenodd"
        clip-rule="evenodd"
    />
</svg>