<svg viewBox="0 0 20 20" xmlns="http://www.w3.org/2000/svg" >
    <path
        d="M7.4987 6.66683C8.41917 6.66683 9.16536 5.92064 9.16536 5.00016C9.16536 4.07969 8.41917 3.3335 7.4987 3.3335C6.57822 3.3335 5.83203 4.07969 5.83203 5.00016C5.83203 5.92064 6.57822 6.66683 7.4987 6.66683ZM5.83203 10.0002C5.83203 9.07969 6.57822 8.3335 7.4987 8.3335C8.41917 8.3335 9.16536 9.07969 9.16536 10.0002C9.16536 10.9206 8.41917 11.6668 7.4987 11.6668C6.57822 11.6668 5.83203 10.9206 5.83203 10.0002ZM7.4987 13.3335C6.57822 13.3335 5.83203 14.0797 5.83203 15.0002C5.83203 15.9206 6.57822 16.6668 7.4987 16.6668C8.41917 16.6668 9.16536 15.9206 9.16536 15.0002C9.16536 14.0797 8.41917 13.3335 7.4987 13.3335ZM14.1654 5.00016C14.1654 5.92064 13.4192 6.66683 12.4987 6.66683C11.5782 6.66683 10.832 5.92064 10.832 5.00016C10.832 4.07969 11.5782 3.3335 12.4987 3.3335C13.4192 3.3335 14.1654 4.07969 14.1654 5.00016ZM12.4987 8.3335C11.5782 8.3335 10.832 9.07969 10.832 10.0002C10.832 10.9206 11.5782 11.6668 12.4987 11.6668C13.4192 11.6668 14.1654 10.9206 14.1654 10.0002C14.1654 9.07969 13.4192 8.3335 12.4987 8.3335ZM10.832 15.0002C10.832 14.0797 11.5782 13.3335 12.4987 13.3335C13.4192 13.3335 14.1654 14.0797 14.1654 15.0002C14.1654 15.9206 13.4192 16.6668 12.4987 16.6668C11.5782 16.6668 10.832 15.9206 10.832 15.0002Z"
        fill="currentColor"
        fill-rule="evenodd"
        clip-rule="evenodd"
    />
</svg>
