<svg xmlns="http://www.w3.org/2000/svg" viewBox="0 0 24 24">
    <path
        d="M12 5.07C13.1586 3.80024 14.7819 3.05354 16.5 3C19.5376 3 22 5.46243 22 8.5C22 12.0962 18.0022 16.0375 15.6046 18.4013C15.3887 18.6141 15.1858 18.8142 15 19L12.72 21.28C12.5795 21.4207 12.3888 21.4998 12.19 21.5H11.81C11.6112 21.4998 11.4205 21.4207 11.28 21.28L9 19C8.81416 18.8142 8.61127 18.6141 8.3954 18.4013C5.99775 16.0375 2 12.0962 2 8.5C2 5.46243 4.46243 3 7.5 3C9.2181 3.05354 10.8414 3.80024 12 5.07ZM12 19.17L14.2 17C16.23 15 20 11.26 20 8.5C20 7.56652 19.6272 6.67171 18.9643 6.01446C18.3014 5.35721 17.4034 4.992 16.47 5C14.9153 5.14433 13.5119 5.99152 12.66 7.3C12.5646 7.42469 12.417 7.49846 12.26 7.5H11.81C11.5764 7.49937 11.3556 7.39269 11.21 7.21C10.3716 5.94974 9.00743 5.13712 7.5 5C5.567 5 4 6.567 4 8.5C4 11.26 7.77 15 9.8 17L12 19.17Z"
        fill="currentColor"
        fill-rule="evenodd"
        clip-rule="evenodd" 
    />
</svg>
