<svg viewBox="0 0 24 24" xmlns="http://www.w3.org/2000/svg">
  <path
    d="M12 2C6.47715 2 2 6.47715 2 12C2 17.5228 6.47715 22 12 22C17.5228 22 22 17.5228 22 12C22 9.34784 20.9464 6.8043 19.0711 4.92893C17.1957 3.05357 14.6522 2 12 2ZM12 20C7.58172 20 4 16.4183 4 12C4 7.58172 7.58172 4 12 4C16.4183 4 20 7.58172 20 12C20 14.1217 19.1571 16.1566 17.6569 17.6569C16.1566 19.1571 14.1217 20 12 20ZM15.2366 9.42427C15.2366 8.08538 14.1512 7 12.8123 7H11.1288C9.78989 7 8.70451 8.08538 8.70451 9.42427V9.84515C8.70451 10.0776 8.89295 10.266 9.12539 10.266H9.76513C9.99757 10.266 10.186 10.0776 10.186 9.84515V9.42427C10.186 9.17423 10.2853 8.93443 10.4621 8.75763C10.6389 8.58082 10.8787 8.4815 11.1288 8.4815H12.8123C13.333 8.4815 13.7551 8.90359 13.7551 9.42427V9.89565C13.7559 10.3016 13.4989 10.6634 13.1153 10.7963L12.3157 11.0573C11.669 11.271 11.2316 11.8745 11.2298 12.5556V13.2122C11.2298 13.4446 11.4182 13.6331 11.6507 13.6331H12.2904C12.5229 13.6331 12.7113 13.4446 12.7113 13.2122V12.5556C12.7153 12.5016 12.7583 12.4586 12.8123 12.4546L13.612 12.1937C14.6099 11.8707 15.2884 10.9445 15.2955 9.89565L15.2366 9.42427ZM12.3916 15.3165H11.5498C11.3174 15.3165 11.1289 15.5049 11.1289 15.7374V16.5791C11.1289 16.8116 11.3174 17 11.5498 17H12.3916C12.624 17 12.8124 16.8116 12.8124 16.5791V15.7374C12.8124 15.5049 12.624 15.3165 12.3916 15.3165Z"
    fill="currentColor"
    fill-rule="evenodd"
    clip-rule="evenodd"
  />
</svg>