<svg xmlns="http://www.w3.org/2000/svg" viewBox="0 0 24 24" fill="currentColor"><path fill-rule="evenodd" d="M12 2C6.477 2 2 6.477 2 12s4.477 10 10 10 10-4.477 10-10A10 10 0 0 0 12 2Zm1 15.5a.5.5 0 0 1-.5.5h-1a.5.5 0 0 1-.5-.5v-1a.5.5 0 0 1 .5-.5h1a.5.5 0 0 1 .5.5v1Zm.88-5.21a2.89 2.89 0 0 0 2-2.73V9A2.88 2.88 0 0 0 13 6.12h-2A2.88 2.88 0 0 0 8.12 9v.5a.5.5 0 0 0 .5.5h.76a.5.5 0 0 0 .5-.5V9c0-.619.501-1.12 1.12-1.12h2A1.12 1.12 0 0 1 14.16 9v.56a1.13 1.13 0 0 1-.76 1.07l-.95.31a1.88 1.88 0 0 0-1.29 1.78v.78a.5.5 0 0 0 .5.5h.76a.5.5 0 0 0 .5-.5v-.78c0-.053.032-.1.08-.12l.88-.31Z" clip-rule="evenodd"/></svg>