<svg xmlns="http://www.w3.org/2000/svg" viewBox="0 0 24 24">
  <path
    d="M12 2C6.47715 2 2 6.47715 2 12C2 17.5228 6.47715 22 12 22C17.5228 22 22 17.5228 22 12C22 9.34784 20.9464 6.8043 19.0711 4.92893C17.1957 3.05357 14.6522 2 12 2ZM12 20C7.58172 20 4 16.4183 4 12C4 7.58172 7.58172 4 12 4C16.4183 4 20 7.58172 20 12C20 14.1217 19.1571 16.1566 17.6569 17.6569C16.1566 19.1571 14.1217 20 12 20ZM12.5 7.59768C12.7761 7.59768 13 7.82154 13 8.09768V9.09768C13 9.37382 12.7761 9.59768 12.5 9.59768H11.5C11.2239 9.59768 11 9.37382 11 9.09768V8.09768C11 7.82154 11.2239 7.59768 11.5 7.59768H12.5ZM12.5 10.5977C12.7761 10.5977 13 10.6457 13 11.0459V15.1628C13.2657 15.2367 13.5306 15.3011 13.7606 15.3517C13.9002 15.3825 14.001 15.5053 14.001 15.6483V16.1023C14.001 16.268 13.8667 16.4023 13.701 16.4023H10.3C10.1343 16.4023 10 16.268 10 16.1023V15.6483C10 15.5053 10.1008 15.3825 10.2404 15.3517C10.4701 15.3012 10.7347 15.2369 11 15.163V11.837C10.7347 11.7631 10.4701 11.6988 10.2404 11.6483C10.1008 11.6175 10 11.4947 10 11.3517V10.8977C10 10.732 10.1343 10.5977 10.3 10.5977L12.5 10.5977Z"
    fill="currentColor"
    fill-rule="evenodd"
    clip-rule="evenodd"
    />
</svg>
