<svg xmlns="http://www.w3.org/2000/svg" viewBox="0 0 24 24">
  <path
    d="M20.7098 3.41L20.5898 3.29C20.3982 3.10727 20.1446 3.00368 19.8798 3H11.9298C11.3968 2.99958 10.8856 3.21196 10.5098 3.59L3.28982 10.81C2.90209 11.2 2.90209 11.83 3.28982 12.22L11.7798 20.71C12.1699 21.0977 12.7998 21.0977 13.1898 20.71L20.4098 13.49C20.7879 13.1142 21.0002 12.603 20.9998 12.07V4.12C20.9961 3.85523 20.8925 3.60163 20.7098 3.41ZM18.9998 12.07L12.4898 18.59L5.40982 11.51L11.9298 5H18.9998V12.07ZM16.9998 9C16.9998 10.1046 16.1044 11 14.9998 11C13.8952 11 12.9998 10.1046 12.9998 9C12.9998 7.89543 13.8952 7 14.9998 7C16.1044 7 16.9998 7.89543 16.9998 9Z"
    fill="currentColor"
    fill-rule="evenodd"
    clip-rule="evenodd"
  />
</svg>
