<svg viewBox="0 0 24 24" xmlns="http://www.w3.org/2000/svg">
  <path
    d="M9.92982 2H17.8798C18.1446 2.00368 18.3982 2.10727 18.5898 2.29L18.7098 2.41C18.8925 2.60163 18.9961 2.85523 18.9998 3.12V11.07C19.0002 11.603 18.7879 12.1142 18.4098 12.49L11.1898 19.71C10.7998 20.0977 10.1699 20.0977 9.77982 19.71L1.28982 11.22C0.902093 10.83 0.902093 10.2 1.28982 9.81L8.50982 2.59C8.88561 2.21196 9.39677 1.99958 9.92982 2ZM16.9998 11.07V4H9.92982L3.40982 10.51L10.4898 17.59L16.9998 11.07ZM14.9998 8C14.9998 6.89543 14.1044 6 12.9998 6C11.8952 6 10.9998 6.89543 10.9998 8C10.9998 9.10457 11.8952 10 12.9998 10C14.1044 10 14.9998 9.10457 14.9998 8ZM22.5898 6.29L22.7098 6.41C22.8925 6.60163 22.9961 6.85523 22.9998 7.12V11.9C23.0009 12.9858 22.5605 14.0254 21.7798 14.78L14.7798 21.78C14.487 22.0725 14.0126 22.0725 13.7198 21.78L12.8298 20.89L20.4098 13.32C20.7879 12.9442 21.0002 12.433 20.9998 11.9V6H21.8798C22.1446 6.00368 22.3982 6.10727 22.5898 6.29Z"
    fill="currentColor"
    fill-rule="evenodd"
    clip-rule="evenodd"
  />
</svg>