<svg viewBox="0 0 24 24" fill="currentColor" xmlns="http://www.w3.org/2000/svg">
  <path
    d="M19 8H5L5 16H19V8ZM5 6C3.89543 6 3 6.89543 3 8V16C3 17.1046 3.89543 18 5 18H19C20.1046 18 21 17.1046 21 16V8C21 6.89543 20.1046 6 19 6H5Z"
    fill-rule="evenodd"
    clip-rule="evenodd"
  />
  <path d="M9.42709 14.5L10.9464 9.5H9.32303L8.52176 13.1071H8.49401L7.69273 9.5H6L7.5193 14.5H9.42709Z" />
  <path d="M13 14.5V9.5H11.5293V14.5H13Z" />
  <path d="M13.8514 9.5V14.5H15.3222V13.1348H16.0367C17.2057 13.1348 18 12.4245 18 11.3226C18 10.2103 17.2508 9.5 16.1373 9.5H13.8514ZM15.3222 10.6053H15.7453C16.224 10.6053 16.5154 10.8514 16.5154 11.3261C16.5154 11.8042 16.224 12.0502 15.7349 12.0502H15.3222V10.6053Z" />
</svg>