<svg viewBox="0 0 24 24" fill="currentColor" xmlns="http://www.w3.org/2000/svg">
  <path
    d="M19 8H5L5 16H19V8ZM5 6C3.89543 6 3 6.89543 3 8V16C3 17.1046 3.89543 18 5 18H19C20.1046 18 21 17.1046 21 16V8C21 6.89543 20.1046 6 19 6H5Z"
    fill-rule="evenodd"
    clip-rule="evenodd"
  />
  <path d="M8.44043 14C9.3457 14 9.93164 13.5107 9.93164 12.7695C9.93164 12.21 9.4541 11.7793 8.88281 11.7646V11.7412C9.37207 11.6797 9.74121 11.3135 9.74121 10.8271C9.74121 10.168 9.23438 9.77246 8.37012 9.77246H6.29297V14H8.44043ZM7.53516 10.625H8.0332C8.34668 10.625 8.53418 10.7832 8.53418 11.0439C8.53418 11.2988 8.33496 11.4658 8.01562 11.4658H7.53516V10.625ZM7.53516 13.1475V12.1777H8.07422C8.44629 12.1777 8.66895 12.3535 8.66895 12.6553C8.66895 12.9746 8.44922 13.1475 8.06543 13.1475H7.53516Z" />
  <path d="M12.8309 14H14.1551L12.7752 9.77246H11.2166L9.83672 14H11.1023L11.3221 13.1592H12.6111L12.8309 14ZM11.9549 10.748H11.9783L12.3855 12.2832H11.5477L11.9549 10.748Z" />
  <path d="M14.2359 9.77246V14H16.0436C17.3238 14 18.0797 13.209 18.0797 11.8555C18.0797 10.502 17.3268 9.77246 16.0436 9.77246H14.2359ZM15.4781 10.7598H15.8678C16.4625 10.7598 16.8141 11.1436 16.8141 11.8555C16.8141 12.6348 16.4889 13.0127 15.8678 13.0127H15.4781V10.7598Z" />
</svg>