<svg viewBox="0 0 24 24" xmlns="http://www.w3.org/2000/svg">
    <path d="M6.84359 17.8543L6.14477 17.1507C5.95179 16.9565 5.95179 16.6415 6.14477 16.4472L14.6247 7.99105L8.41215 7.99808C8.2804 7.99863 8.15388 7.94617 8.06072 7.85238C7.96755 7.75858 7.91545 7.63121 7.91599 7.49856L7.92298 6.50656C7.92244 6.37391 7.97454 6.24654 8.0677 6.15274C8.16087 6.05895 8.28739 6.00649 8.41914 6.00704L16.9937 6C17.1902 5.99988 17.3787 6.07833 17.5178 6.2181L17.7834 6.48545C17.9204 6.62667 17.998 6.81569 18 7.01311L17.993 15.6457C17.9936 15.7783 17.9415 15.9057 17.8483 15.9995C17.7551 16.0933 17.6286 16.1457 17.4968 16.1452H16.5045C16.3744 16.1465 16.2492 16.0951 16.1572 16.0024C16.0651 15.9098 16.014 15.7837 16.0153 15.6527L16.0223 9.39815L7.54241 17.8543C7.34944 18.0486 7.03657 18.0486 6.84359 17.8543Z" fill="currentColor" />
</svg>