<svg viewBox="0 0 24 24" xmlns="http://www.w3.org/2000/svg">
  <path d="m21.9999 12c0 4.9706-4.0295 9-9 9-1.8476.0061-3.65122-.5637-5.16005-1.63-.12055-.0869-.19724-.222-.21-.37-.01193-.1441.03913-.2864.14-.39l.72-.73c.16902-.1673.43245-.1924.63-.06 1.14625.7725 2.49775 1.1836 3.88005 1.18 3.8659 0 7-3.134 7-7 0-3.86599-3.1341-7-7-7-3.86604 0-7.00005 3.13401-7.00005 7h2.36c.13559-.002.26593.0523.36.15l.2.2c.09466.0939.1479.2217.1479.355s-.05324.2611-.1479.355l-3.53 3.54c-.19781.1918-.51218.1918-.71 0l-3.53-3.54c-.09465-.0939-.1479-.2217-.1479-.355s.05325-.2611.1479-.355l.2-.2c.09408-.0977.22442-.152.36-.15h2.29c0-4.97056 4.02944-9 9.00005-9 4.9705 0 9 4.02944 9 9z" fill="currentColor" />
</svg>