<svg xmlns="http://www.w3.org/2000/svg" viewBox="0 0 24 24">
  <path
    d="M16.3333 15.0715L19.8889 18.6313C20.0477 18.8079 20.0398 19.0783 19.8711 19.2454L19.2489 19.8684C19.1654 19.9526 19.0518 20 18.9333 20C18.8148 20 18.7012 19.9526 18.6178 19.8684L15.0622 16.3085C14.9639 16.21 14.8746 16.1028 14.7956 15.9881L14.1289 15.0982C13.0258 15.9801 11.656 16.4602 10.2444 16.4598C7.33565 16.4699 4.80802 14.461 4.15798 11.6223C3.50794 8.78365 4.90898 5.87288 7.53164 4.61326C10.1543 3.35364 13.2986 4.08134 15.1031 6.36555C16.9076 8.64977 16.8906 11.8809 15.0622 14.1459L15.9511 14.76C16.0899 14.849 16.2182 14.9535 16.3333 15.0715ZM5.79923 10.2302C5.79923 12.6877 7.78908 14.68 10.2437 14.68C11.4224 14.68 12.5529 14.2112 13.3864 13.3767C14.2199 12.5422 14.6881 11.4103 14.6881 10.2302C14.6881 7.77263 12.6983 5.78038 10.2437 5.78038C7.78908 5.78038 5.79923 7.77263 5.79923 10.2302Z"
    fill="currentColor"
    fill-rule="evenodd"
    clip-rule="evenodd"
  />
</svg>