<svg viewBox="0 0 24 24" xmlns="http://www.w3.org/2000/svg">
  <path d="M18.5 10H22.5C22.7644 10.0159 22.9705 10.2352 22.97 10.5V11.5C22.97 11.7761 22.7461 12 22.47 12H22L20.32 19.65C20.016 21.0198 18.8031 21.9959 17.4 22H6.6C5.20813 21.982 4.01148 21.0089 3.71 19.65L2 12H1.5C1.22386 12 1 11.7761 1 11.5V10.5C1 10.2239 1.22386 10 1.5 10H5.5L11.27 2.3C11.4136 2.11356 11.6347 2.00305 11.87 2H12.13C12.3653 2.00305 12.5864 2.11356 12.73 2.3L18.5 10ZM12 4.67L8 10H16L12 4.67Z" fill="currentColor" />
</svg>