<svg viewBox="0 0 24 24" xmlns="http://www.w3.org/2000/svg">
  <path d="m20.6048 14.56v5.44c0 .56-.44 1-1 1h-15.20001c-.56 0-1-.44-1-1v-5.44c0-.56.44-1 1-1s1 .44 1 1v4.44h13.20001v-4.44c0-.56.44-1 1-1s1 .44 1 1zm-11.88002-5.78002 2.28002-2.31997v8.65999c0 .56.44 1 1 1s1-.44 1-1v-8.65999l2.28 2.31997c.2.2.46.3.72.3s.5-.09998.7-.27998c.4-.38.4-1.02002.02-1.42002l-3.98-4.07998c-.18-.2-.44-.3-.72-.3-.26 0-.52.1-.72.3l-3.98002 4.07998c-.38.4-.38 1.02002.02 1.42002.36.38 1 .35998 1.38-.02002z" fill="currentColor" />
</svg>