<svg viewBox="0 0 24 24" xmlns="http://www.w3.org/2000/svg">
  <path
    d="M20.8699 10.8402C20.9608 10.7391 21.0076 10.6059 20.9999 10.4702C20.7417 6.45639 17.5437 3.25833 13.5299 3.00016C13.3911 2.99662 13.2571 3.05096 13.1599 3.15016C13.059 3.24697 13.0013 3.38033 12.9999 3.52016V11.0002H20.4999C20.6397 10.9987 20.7731 10.9411 20.8699 10.8402ZM10.9999 13.0002H18.4799C18.6161 13.0001 18.7464 13.0555 18.8407 13.1536C18.9351 13.2517 18.9854 13.3841 18.9799 13.5202C18.7032 17.7955 15.1075 21.0939 10.8243 21.0016C6.54102 20.9093 3.09077 17.4591 2.99847 13.1758C2.90618 8.89254 6.2046 5.29687 10.4799 5.02016C10.616 5.01472 10.7483 5.06498 10.8465 5.15935C10.9446 5.25371 11 5.38402 10.9999 5.52016V13.0002Z"
    fill="currentColor"
    fill-rule="evenodd"
    clip-rule="evenodd"
  />
</svg>