<svg xmlns="http://www.w3.org/2000/svg" viewBox="0 0 24 24">
    <path
        d="M14.36 4.02758L15.33 4.39678H15.29C15.5442 4.49055 15.6773 4.76936 15.59 5.02541L10.28 19.6735C10.1818 19.9286 9.89928 20.0607 9.64 19.9729L8.7 19.6336C8.44051 19.5398 8.30623 19.254 8.4 18.995L13.71 4.32693C13.8124 4.07052 14.098 3.93897 14.36 4.02758ZM4.33 12.0102L7.77 8.57768C7.86406 8.48571 7.91707 8.35984 7.91707 8.22844C7.91707 8.09703 7.86406 7.97116 7.77 7.8792L7.06 7.17074C6.96612 7.07629 6.83832 7.02316 6.705 7.02316C6.57168 7.02316 6.44388 7.07629 6.35 7.17074L2.22 11.2918C2.08112 11.4332 2.0023 11.6226 2 11.8206V12.1998C2.00018 12.3982 2.07931 12.5884 2.22 12.7286L6.36 16.8497C6.45388 16.9441 6.58168 16.9972 6.715 16.9972C6.84832 16.9972 6.97612 16.9441 7.07 16.8497L7.78 16.1512C7.87466 16.0575 7.9279 15.93 7.9279 15.797C7.9279 15.6639 7.87466 15.5364 7.78 15.4427L4.33 12.0102ZM22 12.1998C21.9977 12.3978 21.9189 12.5872 21.78 12.7286L17.64 16.8497C17.5461 16.9441 17.4183 16.9972 17.285 16.9972C17.1517 16.9972 17.0239 16.9441 16.93 16.8497L16.22 16.1412C16.1259 16.0492 16.0729 15.9234 16.0729 15.792C16.0729 15.6606 16.1259 15.5347 16.22 15.4427L19.67 12.0102L16.22 8.57768C16.1253 8.484 16.0721 8.35648 16.0721 8.22345C16.0721 8.09042 16.1253 7.9629 16.22 7.86922L16.93 7.17074C17.0239 7.07629 17.1517 7.02316 17.285 7.02316C17.4183 7.02316 17.5461 7.07629 17.64 7.17074L21.78 11.2918C21.9207 11.432 21.9998 11.6222 22 11.8206V12.1998Z"
        fill="currentColor"
        fill-rule="evenodd"
        clip-rule="evenodd"
    />
</svg>