<svg xmlns="http://www.w3.org/2000/svg" viewBox="0 0 24 24">
  <path
    d="M21 7.65989V7.99989C21.0008 9.06598 20.5761 10.0883 19.82 10.8399L17 13.6699C16.4739 14.191 15.6261 14.191 15.1 13.6699L15 13.5599C14.8094 13.3655 14.8094 13.0543 15 12.8599L18.44 9.41989C18.8071 9.03921 19.0084 8.52865 19 7.99989V7.65989C19.0004 7.12685 18.788 6.61569 18.41 6.23989L17.76 5.58989C17.3842 5.21185 16.873 4.99947 16.34 4.99989H16C15.467 4.99947 14.9558 5.21185 14.58 5.58989L11.14 8.99989C10.9456 9.19046 10.6344 9.19046 10.44 8.99989L10.33 8.88989C9.80889 8.36375 9.80889 7.51603 10.33 6.98989L13.16 4.14989C13.9165 3.40481 14.9382 2.99109 16 2.99989H16.34C17.4012 2.99906 18.4192 3.41994 19.17 4.16989L19.83 4.82989C20.58 5.58068 21.0008 6.59871 21 7.65989ZM8.65 13.9399L13.94 8.64989C14.0339 8.55524 14.1617 8.50199 14.295 8.50199C14.4283 8.50199 14.5561 8.55524 14.65 8.64989L15.35 9.34989C15.4447 9.44378 15.4979 9.57158 15.4979 9.70489C15.4979 9.83821 15.4447 9.96601 15.35 10.0599L10.06 15.3499C9.96612 15.4445 9.83832 15.4978 9.705 15.4978C9.57168 15.4978 9.44389 15.4445 9.35 15.3499L8.65 14.6499C8.55535 14.556 8.5021 14.4282 8.5021 14.2949C8.5021 14.1616 8.55535 14.0338 8.65 13.9399ZM13.56 14.9999C13.3656 14.8093 13.0544 14.8093 12.86 14.9999L9.43 18.4099C9.05177 18.7904 8.53651 19.003 8 18.9999H7.66C7.12696 19.0003 6.6158 18.7879 6.24 18.4099L5.59 17.7599C5.21196 17.3841 4.99958 16.8729 5 16.3399V15.9999C4.99958 15.4668 5.21196 14.9557 5.59 14.5799L9.01 11.1399C9.20057 10.9455 9.20057 10.6343 9.01 10.4399L8.9 10.3299C8.37386 9.80878 7.52614 9.80878 7 10.3299L4.18 13.1599C3.42392 13.9115 2.99916 14.9338 3 15.9999V16.3499C3.00182 17.4076 3.4225 18.4216 4.17 19.1699L4.83 19.8299C5.58079 20.5798 6.59882 21.0007 7.66 20.9999H8C9.05345 21.0061 10.0668 20.5964 10.82 19.8599L13.67 17.0099C14.1911 16.4838 14.1911 15.636 13.67 15.1099L13.56 14.9999Z"
    fill="currentColor"
    fill-rule="evenodd"
    clip-rule="evenodd"
  />
</svg>