<svg xmlns="http://www.w3.org/2000/svg" viewBox="0 0 24 24">
  <path
    d="M17 3V17C17 18.1046 16.1046 19 15 19H4C2.89543 19 2 18.1046 2 17V8.24C2.0007 7.44462 2.31723 6.68207 2.88 6.12L7.12 1.88C7.68207 1.31723 8.44462 1.0007 9.24 1H15C16.1046 1 17 1.89543 17 3ZM9 9H4V17H15V3H10V8C10 8.55228 9.55228 9 9 9ZM12.5 12H6.5C6.22386 12 6 12.2239 6 12.5V13.5C6 13.7761 6.22386 14 6.5 14H12.5C12.7761 14 13 13.7761 13 13.5V12.5C13 12.2239 12.7761 12 12.5 12ZM17 21C18.1046 21 19 20.1046 19 19V5C20.1046 5 21 5.89543 21 7V19C21 21.2091 19.2091 23 17 23H8C6.89543 23 6 22.1046 6 21H17Z"
    fill="currentColor"
    fill-rule="evenodd"
    clip-rule="evenodd"
  />
</svg>
